%TF.GenerationSoftware,KiCad,Pcbnew,(6.0.1)*%
%TF.CreationDate,2022-02-16T12:07:44+01:00*%
%TF.ProjectId,f1c200s,66316332-3030-4732-9e6b-696361645f70,rev?*%
%TF.SameCoordinates,PX754fbd0PY813b7f0*%
%TF.FileFunction,Legend,Bot*%
%TF.FilePolarity,Positive*%
%FSLAX46Y46*%
G04 Gerber Fmt 4.6, Leading zero omitted, Abs format (unit mm)*
G04 Created by KiCad (PCBNEW (6.0.1)) date 2022-02-16 12:07:44*
%MOMM*%
%LPD*%
G01*
G04 APERTURE LIST*
G04 Aperture macros list*
%AMRoundRect*
0 Rectangle with rounded corners*
0 $1 Rounding radius*
0 $2 $3 $4 $5 $6 $7 $8 $9 X,Y pos of 4 corners*
0 Add a 4 corners polygon primitive as box body*
4,1,4,$2,$3,$4,$5,$6,$7,$8,$9,$2,$3,0*
0 Add four circle primitives for the rounded corners*
1,1,$1+$1,$2,$3*
1,1,$1+$1,$4,$5*
1,1,$1+$1,$6,$7*
1,1,$1+$1,$8,$9*
0 Add four rect primitives between the rounded corners*
20,1,$1+$1,$2,$3,$4,$5,0*
20,1,$1+$1,$4,$5,$6,$7,0*
20,1,$1+$1,$6,$7,$8,$9,0*
20,1,$1+$1,$8,$9,$2,$3,0*%
G04 Aperture macros list end*
%ADD10C,0.120000*%
%ADD11C,0.700000*%
%ADD12C,4.400000*%
%ADD13O,1.500000X0.800000*%
%ADD14C,0.650000*%
%ADD15O,1.600000X1.000000*%
%ADD16O,2.100000X1.000000*%
%ADD17RoundRect,0.225000X-0.225000X-0.250000X0.225000X-0.250000X0.225000X0.250000X-0.225000X0.250000X0*%
%ADD18RoundRect,0.200000X-0.200000X-0.275000X0.200000X-0.275000X0.200000X0.275000X-0.200000X0.275000X0*%
%ADD19RoundRect,0.150000X-0.512500X-0.150000X0.512500X-0.150000X0.512500X0.150000X-0.512500X0.150000X0*%
%ADD20RoundRect,0.250000X0.375000X0.850000X-0.375000X0.850000X-0.375000X-0.850000X0.375000X-0.850000X0*%
%ADD21RoundRect,0.200000X0.200000X0.275000X-0.200000X0.275000X-0.200000X-0.275000X0.200000X-0.275000X0*%
%ADD22RoundRect,0.225000X0.225000X0.250000X-0.225000X0.250000X-0.225000X-0.250000X0.225000X-0.250000X0*%
%ADD23RoundRect,0.150000X0.150000X-0.650000X0.150000X0.650000X-0.150000X0.650000X-0.150000X-0.650000X0*%
%ADD24RoundRect,0.250000X0.850000X-0.375000X0.850000X0.375000X-0.850000X0.375000X-0.850000X-0.375000X0*%
%ADD25RoundRect,0.250000X-0.850000X0.375000X-0.850000X-0.375000X0.850000X-0.375000X0.850000X0.375000X0*%
%ADD26RoundRect,0.200000X0.275000X-0.200000X0.275000X0.200000X-0.275000X0.200000X-0.275000X-0.200000X0*%
%ADD27R,0.900000X1.200000*%
%ADD28RoundRect,0.225000X0.250000X-0.225000X0.250000X0.225000X-0.250000X0.225000X-0.250000X-0.225000X0*%
%ADD29RoundRect,0.050000X-0.050000X0.375000X-0.050000X-0.375000X0.050000X-0.375000X0.050000X0.375000X0*%
%ADD30RoundRect,0.050000X-0.375000X0.050000X-0.375000X-0.050000X0.375000X-0.050000X0.375000X0.050000X0*%
%ADD31R,1.650000X1.650000*%
%ADD32RoundRect,0.225000X-0.250000X0.225000X-0.250000X-0.225000X0.250000X-0.225000X0.250000X0.225000X0*%
%ADD33R,1.000000X3.150000*%
G04 APERTURE END LIST*
D10*
X18049420Y9425000D02*
X18330580Y9425000D01*
X18049420Y10445000D02*
X18330580Y10445000D01*
X16027742Y637500D02*
X16502258Y637500D01*
X16027742Y1682500D02*
X16502258Y1682500D01*
X28140000Y9720000D02*
X28940000Y9720000D01*
X28140000Y6600000D02*
X26340000Y6600000D01*
X28140000Y9720000D02*
X27340000Y9720000D01*
X28140000Y6600000D02*
X28940000Y6600000D01*
X16027742Y2137500D02*
X16502258Y2137500D01*
X16027742Y3182500D02*
X16502258Y3182500D01*
X28376252Y6020000D02*
X27853748Y6020000D01*
X28376252Y3800000D02*
X27853748Y3800000D01*
X15427258Y13407500D02*
X14952742Y13407500D01*
X15427258Y12362500D02*
X14952742Y12362500D01*
X15330580Y10445000D02*
X15049420Y10445000D01*
X15330580Y9425000D02*
X15049420Y9425000D01*
X17952742Y10887500D02*
X18427258Y10887500D01*
X17952742Y11932500D02*
X18427258Y11932500D01*
X16124420Y4670000D02*
X16405580Y4670000D01*
X16124420Y3650000D02*
X16405580Y3650000D01*
X13380580Y5500000D02*
X13099420Y5500000D01*
X13380580Y6520000D02*
X13099420Y6520000D01*
X11830000Y17760000D02*
X11830000Y16110000D01*
X12090000Y20510000D02*
X12090000Y17760000D01*
X12090000Y20510000D02*
X12090000Y23260000D01*
X12090000Y23260000D02*
X11830000Y23260000D01*
X6640000Y17760000D02*
X6900000Y17760000D01*
X6640000Y20510000D02*
X6640000Y23260000D01*
X6640000Y23260000D02*
X6900000Y23260000D01*
X6640000Y20510000D02*
X6640000Y17760000D01*
X12090000Y17760000D02*
X11830000Y17760000D01*
X13425000Y11398748D02*
X13425000Y11921252D01*
X11205000Y11398748D02*
X11205000Y11921252D01*
X20349420Y6520000D02*
X20630580Y6520000D01*
X20349420Y5500000D02*
X20630580Y5500000D01*
X31749420Y7720000D02*
X32030580Y7720000D01*
X31749420Y6700000D02*
X32030580Y6700000D01*
X13380580Y6970000D02*
X13099420Y6970000D01*
X13380580Y7990000D02*
X13099420Y7990000D01*
G36*
X25671570Y20954280D02*
G01*
X25671570Y22501881D01*
X26288975Y22501881D01*
X26294134Y22417148D01*
X26309612Y22343925D01*
X26355650Y22230419D01*
X26506462Y22287569D01*
X26468362Y22375675D01*
X26452487Y22487594D01*
X26465011Y22574024D01*
X26502582Y22625883D01*
X26565200Y22643169D01*
X26615206Y22627294D01*
X26653306Y22586812D01*
X26682675Y22531250D01*
X26706487Y22470131D01*
X26745381Y22374087D01*
X26802531Y22282012D01*
X26891431Y22212956D01*
X26951558Y22192716D01*
X27025575Y22185969D01*
X27148011Y22208392D01*
X27239094Y22275662D01*
X27280986Y22345777D01*
X27306122Y22436529D01*
X27314500Y22547919D01*
X27307952Y22657853D01*
X27288306Y22743181D01*
X27239888Y22852719D01*
X27081138Y22795569D01*
X27128763Y22693175D01*
X27145431Y22627095D01*
X27150988Y22547919D01*
X27140669Y22466163D01*
X27112094Y22414569D01*
X27070819Y22388375D01*
X27023988Y22381231D01*
X26970013Y22398694D01*
X26927944Y22443144D01*
X26894606Y22503469D01*
X26866825Y22570144D01*
X26830312Y22662219D01*
X26777925Y22748737D01*
X26699344Y22813031D01*
X26582662Y22838431D01*
X26459631Y22816008D01*
X26366762Y22748737D01*
X26323547Y22681445D01*
X26297618Y22599160D01*
X26288975Y22501881D01*
X25671570Y22501881D01*
X25671570Y23221019D01*
X26288975Y23221019D01*
X26297706Y23126562D01*
X26317550Y23052744D01*
X26341362Y22999562D01*
X26360412Y22967019D01*
X26515987Y23017819D01*
X26475506Y23105925D01*
X26458837Y23224194D01*
X26475506Y23313887D01*
X26531069Y23391675D01*
X26635050Y23447237D01*
X26708075Y23463311D01*
X26796975Y23468669D01*
X26900427Y23462231D01*
X26986417Y23442916D01*
X27054944Y23410725D01*
X27122214Y23334327D01*
X27144638Y23221019D01*
X27127175Y23094812D01*
X27092250Y23014644D01*
X27246238Y22965431D01*
X27293069Y23077350D01*
X27309142Y23153352D01*
X27314500Y23240069D01*
X27299683Y23367774D01*
X27255233Y23473608D01*
X27181150Y23557569D01*
X27107430Y23605491D01*
X27019622Y23639722D01*
X26917724Y23660260D01*
X26801737Y23667106D01*
X26686247Y23658772D01*
X26584250Y23633769D01*
X26496342Y23593883D01*
X26423119Y23540900D01*
X26365175Y23475812D01*
X26323106Y23399612D01*
X26297508Y23314086D01*
X26288975Y23221019D01*
X25671570Y23221019D01*
X25671570Y23722669D01*
X27385938Y23722669D01*
X27555800Y23722669D01*
X27555800Y24491019D01*
X27385938Y24491019D01*
X27385938Y23722669D01*
X25671570Y23722669D01*
X25671570Y24764069D01*
X26311200Y24764069D01*
X27131938Y24764069D01*
X27131938Y24568806D01*
X27293863Y24568806D01*
X27293863Y25165706D01*
X27131938Y25165706D01*
X27131938Y24959331D01*
X26582662Y24959331D01*
X26639019Y25060931D01*
X26677912Y25157769D01*
X26515987Y25221269D01*
X26479475Y25138719D01*
X26430262Y25049819D01*
X26373112Y24965681D01*
X26311200Y24897419D01*
X26311200Y24764069D01*
X25671570Y24764069D01*
X25671570Y25381606D01*
X26311200Y25381606D01*
X26473125Y25381606D01*
X26473125Y25594331D01*
X27131938Y25594331D01*
X27131938Y25381606D01*
X27293863Y25381606D01*
X27293863Y26005494D01*
X27131938Y26005494D01*
X27131938Y25791181D01*
X26473125Y25791181D01*
X26473125Y26005494D01*
X26311200Y26005494D01*
X26311200Y25381606D01*
X25671570Y25381606D01*
X25671570Y26529369D01*
X26300087Y26529369D01*
X26308642Y26413834D01*
X26334307Y26316997D01*
X26377081Y26238856D01*
X26439258Y26181530D01*
X26523131Y26147134D01*
X26628700Y26135669D01*
X26735327Y26147222D01*
X26820258Y26181883D01*
X26883494Y26239650D01*
X26927150Y26318584D01*
X26953344Y26416744D01*
X26962075Y26534131D01*
X26962075Y26603981D01*
X27293863Y26603981D01*
X27293863Y26799244D01*
X26323900Y26799244D01*
X26312787Y26734950D01*
X26305644Y26662719D01*
X26301675Y26591281D01*
X26300087Y26529369D01*
X25671570Y26529369D01*
X25671570Y27264381D01*
X26288975Y27264381D01*
X26294134Y27179648D01*
X26309612Y27106425D01*
X26355650Y26992919D01*
X26506462Y27050069D01*
X26468362Y27138175D01*
X26452487Y27250094D01*
X26465011Y27336524D01*
X26502582Y27388383D01*
X26565200Y27405669D01*
X26615206Y27389794D01*
X26653306Y27349313D01*
X26682675Y27293750D01*
X26706487Y27232631D01*
X26745381Y27136588D01*
X26802531Y27044513D01*
X26891431Y26975456D01*
X26951558Y26955216D01*
X27025575Y26948469D01*
X27148011Y26970892D01*
X27239094Y27038163D01*
X27280986Y27108277D01*
X27306122Y27199029D01*
X27314500Y27310419D01*
X27307952Y27420353D01*
X27288306Y27505681D01*
X27239888Y27615219D01*
X27081138Y27558069D01*
X27128763Y27455675D01*
X27145431Y27389595D01*
X27150988Y27310419D01*
X27140669Y27228663D01*
X27112094Y27177069D01*
X27070819Y27150875D01*
X27023988Y27143731D01*
X26970013Y27161194D01*
X26927944Y27205644D01*
X26894606Y27265969D01*
X26866825Y27332644D01*
X26830312Y27424719D01*
X26777925Y27511238D01*
X26699344Y27575531D01*
X26582662Y27600931D01*
X26459631Y27578508D01*
X26366762Y27511238D01*
X26323547Y27443945D01*
X26297618Y27361660D01*
X26288975Y27264381D01*
X25671570Y27264381D01*
X25671570Y27753331D01*
X26184200Y27753331D01*
X27555800Y28194656D01*
X27555800Y28397856D01*
X26184200Y27953356D01*
X26184200Y27753331D01*
X25671570Y27753331D01*
X25671570Y28732819D01*
X26311200Y28732819D01*
X27131938Y28732819D01*
X27131938Y28537556D01*
X27293863Y28537556D01*
X27293863Y29134456D01*
X27131938Y29134456D01*
X27131938Y28928081D01*
X26582662Y28928081D01*
X26639019Y29029681D01*
X26677912Y29126519D01*
X26515987Y29190019D01*
X26479475Y29107469D01*
X26430262Y29018569D01*
X26373112Y28934431D01*
X26311200Y28866169D01*
X26311200Y28732819D01*
X25671570Y28732819D01*
X25671570Y29299556D01*
X26311200Y29299556D01*
X26769987Y29550381D01*
X26839837Y29507916D01*
X26912863Y29466244D01*
X26986483Y29426358D01*
X27058119Y29389250D01*
X27126381Y29355714D01*
X27189881Y29326544D01*
X27293863Y29283681D01*
X27293863Y29494819D01*
X27208534Y29528355D01*
X27114475Y29568638D01*
X27016050Y29613286D01*
X26917625Y29659919D01*
X27013073Y29705956D01*
X27112094Y29751994D01*
X27207939Y29794856D01*
X27293863Y29831369D01*
X27293863Y30042506D01*
X27190675Y29995675D01*
X27127969Y29963131D01*
X27060500Y29927413D01*
X26989658Y29889114D01*
X26916831Y29848831D01*
X26844402Y29808350D01*
X26774750Y29769456D01*
X26311200Y30026631D01*
X26311200Y29815494D01*
X26625525Y29659919D01*
X26311200Y29496406D01*
X26311200Y29299556D01*
X25671570Y29299556D01*
X25671570Y30099656D01*
X26311200Y30099656D01*
X26473125Y30099656D01*
X26473125Y30358419D01*
X27293863Y30358419D01*
X27293863Y30555269D01*
X26473125Y30555269D01*
X26473125Y30814031D01*
X26311200Y30814031D01*
X26311200Y30099656D01*
X25671570Y30099656D01*
X25671570Y31326661D01*
X28068430Y32045720D01*
X28068430Y21673339D01*
X25671570Y20954280D01*
G37*
G36*
X26792212Y26524606D02*
G01*
X26782886Y26442453D01*
X26754906Y26383319D01*
X26704305Y26347600D01*
X26627112Y26335694D01*
X26553889Y26347402D01*
X26505669Y26382525D01*
X26478880Y26437095D01*
X26469950Y26507144D01*
X26470744Y26555563D01*
X26474712Y26603981D01*
X26792212Y26603981D01*
X26792212Y26524606D01*
G37*
X15427258Y10887500D02*
X14952742Y10887500D01*
X15427258Y11932500D02*
X14952742Y11932500D01*
X20250000Y2646252D02*
X20250000Y2123748D01*
X18030000Y2646252D02*
X18030000Y2123748D01*
X26367500Y11172742D02*
X26367500Y11647258D01*
X27412500Y11172742D02*
X27412500Y11647258D01*
X20349420Y6980000D02*
X20630580Y6980000D01*
X20349420Y8000000D02*
X20630580Y8000000D01*
X30890000Y910000D02*
X26990000Y910000D01*
X30890000Y2910000D02*
X26990000Y2910000D01*
X30890000Y2910000D02*
X30890000Y910000D01*
X11227258Y15532500D02*
X10752742Y15532500D01*
X11227258Y14487500D02*
X10752742Y14487500D01*
G36*
X24330992Y22719980D02*
G01*
X24395881Y22715812D01*
X24504625Y22693587D01*
X24577650Y22646756D01*
X24604638Y22565794D01*
X24577650Y22485625D01*
X24503831Y22438000D01*
X24395088Y22415775D01*
X24330794Y22411608D01*
X24261737Y22410219D01*
X24192483Y22411608D01*
X24127594Y22415775D01*
X24018850Y22438000D01*
X23945825Y22484831D01*
X23918837Y22565794D01*
X23945825Y22646756D01*
X24019644Y22693587D01*
X24128387Y22715812D01*
X24192681Y22719980D01*
X24261737Y22721369D01*
X24330992Y22719980D01*
G37*
G36*
X24252212Y26571056D02*
G01*
X24242886Y26488903D01*
X24214906Y26429769D01*
X24164305Y26394050D01*
X24087112Y26382144D01*
X24013889Y26393852D01*
X23965669Y26428975D01*
X23938880Y26483545D01*
X23929950Y26553594D01*
X23930744Y26602013D01*
X23934712Y26650431D01*
X24252212Y26650431D01*
X24252212Y26571056D01*
G37*
G36*
X23131570Y19433868D02*
G01*
X23131570Y20665556D01*
X23771200Y20665556D01*
X23933125Y20665556D01*
X23933125Y20878281D01*
X24591938Y20878281D01*
X24591938Y20665556D01*
X24753863Y20665556D01*
X24753863Y21289444D01*
X24591938Y21289444D01*
X24591938Y21075131D01*
X23933125Y21075131D01*
X23933125Y21289444D01*
X23771200Y21289444D01*
X23771200Y20665556D01*
X23131570Y20665556D01*
X23131570Y21754581D01*
X23748975Y21754581D01*
X23754134Y21669848D01*
X23769612Y21596625D01*
X23815650Y21483119D01*
X23966462Y21540269D01*
X23928362Y21628375D01*
X23912487Y21740294D01*
X23925011Y21826724D01*
X23962582Y21878583D01*
X24025200Y21895869D01*
X24075206Y21879994D01*
X24113306Y21839512D01*
X24142675Y21783950D01*
X24166487Y21722831D01*
X24205381Y21626787D01*
X24262531Y21534712D01*
X24351431Y21465656D01*
X24411558Y21445416D01*
X24485575Y21438669D01*
X24608011Y21461092D01*
X24699094Y21528362D01*
X24740986Y21598477D01*
X24766122Y21689229D01*
X24774500Y21800619D01*
X24767952Y21910553D01*
X24748306Y21995881D01*
X24699888Y22105419D01*
X24541138Y22048269D01*
X24588763Y21945875D01*
X24605431Y21879795D01*
X24610988Y21800619D01*
X24600669Y21718862D01*
X24572094Y21667269D01*
X24530819Y21641075D01*
X24483988Y21633931D01*
X24430013Y21651394D01*
X24387944Y21695844D01*
X24354606Y21756169D01*
X24326825Y21822844D01*
X24290312Y21914919D01*
X24237925Y22001437D01*
X24159344Y22065731D01*
X24042662Y22091131D01*
X23919631Y22068708D01*
X23826762Y22001437D01*
X23783547Y21934145D01*
X23757618Y21851860D01*
X23748975Y21754581D01*
X23131570Y21754581D01*
X23131570Y22565794D01*
X23748975Y22565794D01*
X23763351Y22459608D01*
X23806478Y22371766D01*
X23878356Y22302269D01*
X23950836Y22262680D01*
X24038892Y22234403D01*
X24142526Y22217437D01*
X24261737Y22211781D01*
X24380949Y22217536D01*
X24484583Y22234800D01*
X24572639Y22263573D01*
X24645119Y22303856D01*
X24716997Y22373706D01*
X24760124Y22460490D01*
X24774500Y22564206D01*
X24760124Y22670481D01*
X24716997Y22758587D01*
X24645119Y22828525D01*
X24572639Y22868461D01*
X24484583Y22896986D01*
X24380949Y22914101D01*
X24261737Y22919806D01*
X24142526Y22913952D01*
X24038892Y22896391D01*
X23950836Y22867121D01*
X23878356Y22826144D01*
X23806478Y22755588D01*
X23763351Y22668805D01*
X23748975Y22565794D01*
X23131570Y22565794D01*
X23131570Y23057919D01*
X23771200Y23057919D01*
X23898200Y23047005D01*
X24022025Y23036487D01*
X24143667Y23026962D01*
X24264119Y23019025D01*
X24384372Y23012477D01*
X24505419Y23007119D01*
X24628252Y23002753D01*
X24753863Y22999181D01*
X24753863Y23178569D01*
X23990275Y23169044D01*
X24406200Y23289694D01*
X24406200Y23432569D01*
X23990275Y23548456D01*
X24753863Y23540519D01*
X24753863Y23719906D01*
X24630831Y23714945D01*
X24503038Y23709587D01*
X24373259Y23703833D01*
X24244275Y23697681D01*
X24117672Y23690736D01*
X23995037Y23682600D01*
X23878753Y23673273D01*
X23771200Y23662756D01*
X23771200Y23500831D01*
X23856925Y23473050D01*
X23969637Y23437331D01*
X24091875Y23399231D01*
X24206175Y23362719D01*
X24084731Y23323031D01*
X23964081Y23283344D01*
X23855337Y23248419D01*
X23771200Y23219844D01*
X23771200Y23057919D01*
X23131570Y23057919D01*
X23131570Y23769119D01*
X24845938Y23769119D01*
X25015800Y23769119D01*
X25015800Y24537469D01*
X24845938Y24537469D01*
X24845938Y23769119D01*
X23131570Y23769119D01*
X23131570Y24810519D01*
X23771200Y24810519D01*
X24591938Y24810519D01*
X24591938Y24615256D01*
X24753863Y24615256D01*
X24753863Y25212156D01*
X24591938Y25212156D01*
X24591938Y25005781D01*
X24042662Y25005781D01*
X24099019Y25107381D01*
X24137912Y25204219D01*
X23975987Y25267719D01*
X23939475Y25185169D01*
X23890262Y25096269D01*
X23833112Y25012131D01*
X23771200Y24943869D01*
X23771200Y24810519D01*
X23131570Y24810519D01*
X23131570Y25428056D01*
X23771200Y25428056D01*
X23933125Y25428056D01*
X23933125Y25640781D01*
X24591938Y25640781D01*
X24591938Y25428056D01*
X24753863Y25428056D01*
X24753863Y26051944D01*
X24591938Y26051944D01*
X24591938Y25837631D01*
X23933125Y25837631D01*
X23933125Y26051944D01*
X23771200Y26051944D01*
X23771200Y25428056D01*
X23131570Y25428056D01*
X23131570Y26575819D01*
X23760087Y26575819D01*
X23768642Y26460284D01*
X23794307Y26363447D01*
X23837081Y26285306D01*
X23899258Y26227980D01*
X23983131Y26193584D01*
X24088700Y26182119D01*
X24195327Y26193672D01*
X24280258Y26228333D01*
X24343494Y26286100D01*
X24387150Y26365034D01*
X24413344Y26463194D01*
X24422075Y26580581D01*
X24422075Y26650431D01*
X24753863Y26650431D01*
X24753863Y26845694D01*
X23783900Y26845694D01*
X23772787Y26781400D01*
X23765644Y26709169D01*
X23761675Y26637731D01*
X23760087Y26575819D01*
X23131570Y26575819D01*
X23131570Y27310831D01*
X23748975Y27310831D01*
X23754134Y27226098D01*
X23769612Y27152875D01*
X23815650Y27039369D01*
X23966462Y27096519D01*
X23928362Y27184625D01*
X23912487Y27296544D01*
X23925011Y27382974D01*
X23962582Y27434833D01*
X24025200Y27452119D01*
X24075206Y27436244D01*
X24113306Y27395763D01*
X24142675Y27340200D01*
X24166487Y27279081D01*
X24205381Y27183038D01*
X24262531Y27090963D01*
X24351431Y27021906D01*
X24411558Y27001666D01*
X24485575Y26994919D01*
X24608011Y27017342D01*
X24699094Y27084613D01*
X24740986Y27154727D01*
X24766122Y27245479D01*
X24774500Y27356869D01*
X24767952Y27466803D01*
X24748306Y27552131D01*
X24699888Y27661669D01*
X24541138Y27604519D01*
X24588763Y27502125D01*
X24605431Y27436045D01*
X24610988Y27356869D01*
X24600669Y27275113D01*
X24572094Y27223519D01*
X24530819Y27197325D01*
X24483988Y27190181D01*
X24430013Y27207644D01*
X24387944Y27252094D01*
X24354606Y27312419D01*
X24326825Y27379094D01*
X24290312Y27471169D01*
X24237925Y27557688D01*
X24159344Y27621981D01*
X24042662Y27647381D01*
X23919631Y27624958D01*
X23826762Y27557688D01*
X23783547Y27490395D01*
X23757618Y27408110D01*
X23748975Y27310831D01*
X23131570Y27310831D01*
X23131570Y27799781D01*
X23644200Y27799781D01*
X25015800Y28241106D01*
X25015800Y28444306D01*
X23644200Y27999806D01*
X23644200Y27799781D01*
X23131570Y27799781D01*
X23131570Y28779269D01*
X23771200Y28779269D01*
X24591938Y28779269D01*
X24591938Y28584006D01*
X24753863Y28584006D01*
X24753863Y29180906D01*
X24591938Y29180906D01*
X24591938Y28974531D01*
X24042662Y28974531D01*
X24099019Y29076131D01*
X24137912Y29172969D01*
X23975987Y29236469D01*
X23939475Y29153919D01*
X23890262Y29065019D01*
X23833112Y28980881D01*
X23771200Y28912619D01*
X23771200Y28779269D01*
X23131570Y28779269D01*
X23131570Y29346006D01*
X23771200Y29346006D01*
X24229987Y29596831D01*
X24299837Y29554366D01*
X24372863Y29512694D01*
X24446483Y29472808D01*
X24518119Y29435700D01*
X24586381Y29402164D01*
X24649881Y29372994D01*
X24753863Y29330131D01*
X24753863Y29541269D01*
X24668534Y29574805D01*
X24574475Y29615088D01*
X24476050Y29659736D01*
X24377625Y29706369D01*
X24473073Y29752406D01*
X24572094Y29798444D01*
X24667939Y29841306D01*
X24753863Y29877819D01*
X24753863Y30088956D01*
X24650675Y30042125D01*
X24587969Y30009581D01*
X24520500Y29973863D01*
X24449658Y29935564D01*
X24376831Y29895281D01*
X24304402Y29854800D01*
X24234750Y29815906D01*
X23771200Y30073081D01*
X23771200Y29861944D01*
X24085525Y29706369D01*
X23771200Y29542856D01*
X23771200Y29346006D01*
X23131570Y29346006D01*
X23131570Y30560444D01*
X23760087Y30560444D01*
X23764850Y30480275D01*
X23779137Y30408044D01*
X23803347Y30344544D01*
X23837875Y30290569D01*
X23938681Y30215163D01*
X24005158Y30195517D01*
X24082350Y30188969D01*
X24164106Y30197700D01*
X24237925Y30223894D01*
X24299441Y30270328D01*
X24344288Y30339781D01*
X24435569Y30282631D01*
X24540344Y30223894D01*
X24649881Y30169125D01*
X24753863Y30123881D01*
X24753863Y30328669D01*
X24660398Y30368158D01*
X24570506Y30413600D01*
X24481805Y30463805D01*
X24391913Y30517581D01*
X24391913Y30619181D01*
X24753863Y30619181D01*
X24753863Y30814444D01*
X23785487Y30814444D01*
X23773581Y30751738D01*
X23765644Y30682681D01*
X23761675Y30616006D01*
X23760087Y30560444D01*
X23131570Y30560444D01*
X23131570Y31327074D01*
X25528430Y32046132D01*
X25528430Y20152926D01*
X23131570Y19433868D01*
G37*
G36*
X24229987Y30576319D02*
G01*
X24220264Y30490197D01*
X24191094Y30431856D01*
X24080762Y30387406D01*
X24013294Y30399313D01*
X23966462Y30435031D01*
X23939078Y30490197D01*
X23929950Y30560444D01*
X23930744Y30587431D01*
X23934712Y30619181D01*
X24229987Y30619181D01*
X24229987Y30576319D01*
G37*
X19955000Y11398748D02*
X19955000Y11921252D01*
X22175000Y11398748D02*
X22175000Y11921252D01*
X32130000Y9444420D02*
X32130000Y9725580D01*
X33150000Y9444420D02*
X33150000Y9725580D01*
X15255000Y8220000D02*
X15255000Y8670000D01*
X18475000Y5900000D02*
X18475000Y5450000D01*
X18475000Y5450000D02*
X18025000Y5450000D01*
X18475000Y8220000D02*
X18475000Y8670000D01*
X18475000Y8670000D02*
X18025000Y8670000D01*
X15255000Y5900000D02*
X15255000Y5450000D01*
X15255000Y5450000D02*
X15705000Y5450000D01*
G36*
X32235113Y29718194D02*
G01*
X32236700Y29669775D01*
X32231144Y29604688D01*
X32210506Y29548331D01*
X32167644Y29507850D01*
X32097000Y29491975D01*
X31994606Y29537219D01*
X31963650Y29658663D01*
X31963650Y29763438D01*
X32230350Y29763438D01*
X32235113Y29718194D01*
G37*
G36*
X31801725Y29687238D02*
G01*
X31769181Y29574525D01*
X31679487Y29536425D01*
X31623131Y29547538D01*
X31589794Y29577700D01*
X31573919Y29622150D01*
X31569950Y29674537D01*
X31571537Y29720575D01*
X31576300Y29763438D01*
X31801725Y29763438D01*
X31801725Y29687238D01*
G37*
G36*
X32004925Y24791387D02*
G01*
X31903325Y24810437D01*
X31805694Y24831869D01*
X31707269Y24857269D01*
X31601700Y24886637D01*
X31707269Y24916006D01*
X31805694Y24941406D01*
X31903325Y24963631D01*
X32004925Y24983475D01*
X32004925Y24791387D01*
G37*
G36*
X33168430Y32049226D02*
G01*
X33168430Y23989832D01*
X30771570Y23270774D01*
X30771570Y24775512D01*
X31411200Y24775512D01*
X31520787Y24740637D01*
X31633648Y24705861D01*
X31749784Y24671184D01*
X31869194Y24636606D01*
X31967650Y24609142D01*
X32069346Y24581996D01*
X32174280Y24555167D01*
X32282452Y24528656D01*
X32393863Y24502462D01*
X32393863Y24712012D01*
X32166850Y24758050D01*
X32166850Y25019987D01*
X32393863Y25064437D01*
X32393863Y25267637D01*
X32279721Y25239634D01*
X32169708Y25211503D01*
X32063821Y25183246D01*
X31962062Y25154861D01*
X31864431Y25126350D01*
X31746510Y25090929D01*
X31631664Y25056103D01*
X31519894Y25021873D01*
X31411200Y24988237D01*
X31411200Y24775512D01*
X30771570Y24775512D01*
X30771570Y25755000D01*
X31400087Y25755000D01*
X31407231Y25662330D01*
X31428662Y25577994D01*
X31465373Y25503977D01*
X31518356Y25442262D01*
X31587809Y25392852D01*
X31673931Y25355744D01*
X31778111Y25332527D01*
X31901737Y25324787D01*
X32028142Y25333320D01*
X32134306Y25358919D01*
X32221420Y25399598D01*
X32290675Y25453375D01*
X32342864Y25519455D01*
X32378781Y25597044D01*
X32399617Y25684555D01*
X32406563Y25780400D01*
X32401006Y25882794D01*
X32382750Y25989950D01*
X31423900Y25989950D01*
X31404850Y25864537D01*
X31400087Y25755000D01*
X30771570Y25755000D01*
X30771570Y26455087D01*
X31388975Y26455087D01*
X31394134Y26370355D01*
X31409612Y26297131D01*
X31455650Y26183625D01*
X31606462Y26240775D01*
X31568362Y26328881D01*
X31552487Y26440800D01*
X31565011Y26527231D01*
X31602582Y26579089D01*
X31665200Y26596375D01*
X31715206Y26580500D01*
X31753306Y26540019D01*
X31782675Y26484456D01*
X31806487Y26423337D01*
X31845381Y26327294D01*
X31902531Y26235219D01*
X31991431Y26166162D01*
X32051558Y26145922D01*
X32125575Y26139175D01*
X32248011Y26161598D01*
X32339094Y26228869D01*
X32380986Y26298983D01*
X32406122Y26389735D01*
X32414500Y26501125D01*
X32407952Y26611059D01*
X32388306Y26696387D01*
X32339888Y26805925D01*
X32181138Y26748775D01*
X32228763Y26646381D01*
X32245431Y26580302D01*
X32250988Y26501125D01*
X32240669Y26419369D01*
X32212094Y26367775D01*
X32170819Y26341581D01*
X32123988Y26334437D01*
X32070013Y26351900D01*
X32027944Y26396350D01*
X31994606Y26456675D01*
X31966825Y26523350D01*
X31930312Y26615425D01*
X31877925Y26701944D01*
X31799344Y26766237D01*
X31682662Y26791637D01*
X31559631Y26769214D01*
X31466762Y26701944D01*
X31423547Y26634651D01*
X31397618Y26552366D01*
X31388975Y26455087D01*
X30771570Y26455087D01*
X30771570Y26944037D01*
X31284200Y26944037D01*
X32655800Y27385362D01*
X32655800Y27588562D01*
X31284200Y27144062D01*
X31284200Y26944037D01*
X30771570Y26944037D01*
X30771570Y28042588D01*
X31388975Y28042588D01*
X31394134Y27957855D01*
X31409612Y27884631D01*
X31455650Y27771125D01*
X31606462Y27828275D01*
X31568362Y27916381D01*
X31552487Y28028300D01*
X31565011Y28114731D01*
X31602582Y28166589D01*
X31665200Y28183875D01*
X31715206Y28168000D01*
X31753306Y28127519D01*
X31782675Y28071956D01*
X31806487Y28010838D01*
X31845381Y27914794D01*
X31902531Y27822719D01*
X31991431Y27753663D01*
X32051558Y27733422D01*
X32125575Y27726675D01*
X32248011Y27749098D01*
X32339094Y27816369D01*
X32380986Y27886483D01*
X32406122Y27977235D01*
X32414500Y28088625D01*
X32407952Y28198559D01*
X32388306Y28283888D01*
X32339888Y28393425D01*
X32181138Y28336275D01*
X32228763Y28233881D01*
X32245431Y28167802D01*
X32250988Y28088625D01*
X32240669Y28006869D01*
X32212094Y27955275D01*
X32170819Y27929081D01*
X32123988Y27921938D01*
X32070013Y27939400D01*
X32027944Y27983850D01*
X31994606Y28044175D01*
X31966825Y28110850D01*
X31930312Y28202925D01*
X31877925Y28289444D01*
X31799344Y28353738D01*
X31682662Y28379138D01*
X31559631Y28356714D01*
X31466762Y28289444D01*
X31423547Y28222151D01*
X31397618Y28139866D01*
X31388975Y28042588D01*
X30771570Y28042588D01*
X30771570Y28518838D01*
X31411200Y28518838D01*
X32038263Y28518838D01*
X32120019Y28522806D01*
X32193838Y28534713D01*
X32258528Y28556541D01*
X32312900Y28590275D01*
X32356358Y28636313D01*
X32388306Y28695050D01*
X32407952Y28768075D01*
X32414500Y28856975D01*
X32407952Y28944486D01*
X32388306Y29016519D01*
X32312900Y29118913D01*
X32258528Y29151456D01*
X32193838Y29172888D01*
X32120019Y29184794D01*
X32038263Y29188763D01*
X31411200Y29188763D01*
X31411200Y28991913D01*
X32025563Y28991913D01*
X32129544Y28985563D01*
X32197013Y28964131D01*
X32233525Y28922063D01*
X32244638Y28853800D01*
X32233525Y28785538D01*
X32196219Y28742675D01*
X32127956Y28720450D01*
X32023975Y28714100D01*
X31411200Y28714100D01*
X31411200Y28518838D01*
X30771570Y28518838D01*
X30771570Y29704700D01*
X31400087Y29704700D01*
X31405842Y29603894D01*
X31423106Y29523725D01*
X31483431Y29414188D01*
X31566775Y29360213D01*
X31658850Y29345925D01*
X31724731Y29354458D01*
X31782675Y29380056D01*
X31868400Y29471338D01*
X31911262Y29387398D01*
X31966825Y29335606D01*
X32030325Y29308817D01*
X32097000Y29299888D01*
X32178558Y29307428D01*
X32245431Y29330050D01*
X32340681Y29411806D01*
X32371241Y29468163D01*
X32391481Y29534044D01*
X32402792Y29607267D01*
X32406563Y29685650D01*
X32404777Y29751928D01*
X32399419Y29820588D01*
X32390489Y29890041D01*
X32377988Y29958700D01*
X31423900Y29958700D01*
X31407231Y29836463D01*
X31400087Y29704700D01*
X30771570Y29704700D01*
X30771570Y30611163D01*
X31411200Y30611163D01*
X31493552Y30599256D01*
X31588206Y30582588D01*
X31690600Y30562545D01*
X31796169Y30540519D01*
X31902531Y30516706D01*
X32007306Y30491306D01*
X32105930Y30465311D01*
X32193838Y30439713D01*
X32107120Y30414313D01*
X32008894Y30388913D01*
X31904119Y30364306D01*
X31797756Y30341288D01*
X31691989Y30319856D01*
X31589000Y30300013D01*
X31493750Y30282550D01*
X31411200Y30268263D01*
X31411200Y30063475D01*
X31512006Y30084708D01*
X31623925Y30110306D01*
X31744377Y30140072D01*
X31870781Y30173806D01*
X31957565Y30198413D01*
X32045406Y30224606D01*
X32134306Y30252388D01*
X32222765Y30281315D01*
X32309284Y30310949D01*
X32393863Y30341288D01*
X32393863Y30542900D01*
X32277181Y30582191D01*
X32146213Y30623863D01*
X32054226Y30651908D01*
X31962415Y30678896D01*
X31870781Y30704825D01*
X31780911Y30729343D01*
X31694392Y30752097D01*
X31611225Y30773088D01*
X31500100Y30799281D01*
X31411200Y30817538D01*
X31411200Y30611163D01*
X30771570Y30611163D01*
X30771570Y31330168D01*
X33168430Y32049226D01*
G37*
G36*
X32236700Y25777225D02*
G01*
X32236700Y25759762D01*
X32211300Y25647844D01*
X32141450Y25574819D01*
X32035881Y25535131D01*
X31971786Y25526202D01*
X31901737Y25523225D01*
X31777912Y25532750D01*
X31671550Y25566087D01*
X31597731Y25631175D01*
X31569950Y25737537D01*
X31570744Y25766112D01*
X31574712Y25794687D01*
X32235113Y25794687D01*
X32236700Y25777225D01*
G37*
X9705000Y11800580D02*
X9705000Y11519420D01*
X10725000Y11800580D02*
X10725000Y11519420D01*
G36*
X20601570Y20115974D02*
G01*
X20601570Y21381000D01*
X21241200Y21381000D01*
X21338831Y21434181D01*
X21394791Y21467320D01*
X21453131Y21504825D01*
X21513258Y21545902D01*
X21574575Y21589756D01*
X21635297Y21635992D01*
X21693637Y21684212D01*
X21744834Y21634603D01*
X21803175Y21584200D01*
X21867270Y21534789D01*
X21935731Y21488156D01*
X22007169Y21445095D01*
X22080194Y21406400D01*
X22153020Y21373459D01*
X22223863Y21347662D01*
X22223863Y21568325D01*
X22104006Y21618331D01*
X22040506Y21652661D01*
X21978594Y21690562D01*
X21919459Y21731242D01*
X21864294Y21773906D01*
X21774600Y21857250D01*
X22223863Y21857250D01*
X22223863Y22052512D01*
X21241200Y22052512D01*
X21241200Y21857250D01*
X21649187Y21857250D01*
X21550762Y21784225D01*
X21442812Y21711994D01*
X21336450Y21649287D01*
X21241200Y21601662D01*
X21241200Y21381000D01*
X20601570Y21381000D01*
X20601570Y22608137D01*
X21241200Y22608137D01*
X22061938Y22608137D01*
X22061938Y22187450D01*
X22223863Y22187450D01*
X22223863Y22804987D01*
X21241200Y22804987D01*
X21241200Y22608137D01*
X20601570Y22608137D01*
X20601570Y23222500D01*
X21218975Y23222500D01*
X21227706Y23128044D01*
X21247550Y23054225D01*
X21271362Y23001044D01*
X21290412Y22968500D01*
X21445987Y23019300D01*
X21405506Y23107406D01*
X21388837Y23225675D01*
X21405506Y23315369D01*
X21461069Y23393156D01*
X21565050Y23448719D01*
X21638075Y23464792D01*
X21726975Y23470150D01*
X21830427Y23463712D01*
X21916417Y23444397D01*
X21984944Y23412206D01*
X22052214Y23335808D01*
X22074638Y23222500D01*
X22057175Y23096294D01*
X22022250Y23016125D01*
X22176238Y22966912D01*
X22223069Y23078831D01*
X22239142Y23154833D01*
X22244500Y23241550D01*
X22229683Y23369256D01*
X22185233Y23475089D01*
X22111150Y23559050D01*
X22037430Y23606973D01*
X21949622Y23641203D01*
X21847724Y23661741D01*
X21731737Y23668587D01*
X21616247Y23660253D01*
X21514250Y23635250D01*
X21426342Y23595364D01*
X21353119Y23542381D01*
X21295175Y23477294D01*
X21253106Y23401094D01*
X21227508Y23315567D01*
X21218975Y23222500D01*
X20601570Y23222500D01*
X20601570Y23724150D01*
X22315938Y23724150D01*
X22485800Y23724150D01*
X22485800Y24492500D01*
X22315938Y24492500D01*
X22315938Y23724150D01*
X20601570Y23724150D01*
X20601570Y24765550D01*
X21241200Y24765550D01*
X22061938Y24765550D01*
X22061938Y24570287D01*
X22223863Y24570287D01*
X22223863Y25167187D01*
X22061938Y25167187D01*
X22061938Y24960812D01*
X21512662Y24960812D01*
X21569019Y25062412D01*
X21607912Y25159250D01*
X21445987Y25222750D01*
X21409475Y25140200D01*
X21360262Y25051300D01*
X21303112Y24967162D01*
X21241200Y24898900D01*
X21241200Y24765550D01*
X20601570Y24765550D01*
X20601570Y25383087D01*
X21241200Y25383087D01*
X21403125Y25383087D01*
X21403125Y25595812D01*
X22061938Y25595812D01*
X22061938Y25383087D01*
X22223863Y25383087D01*
X22223863Y26006975D01*
X22061938Y26006975D01*
X22061938Y25792662D01*
X21403125Y25792662D01*
X21403125Y26006975D01*
X21241200Y26006975D01*
X21241200Y25383087D01*
X20601570Y25383087D01*
X20601570Y26530850D01*
X21230087Y26530850D01*
X21238642Y26415315D01*
X21264307Y26318478D01*
X21307081Y26240338D01*
X21369258Y26183011D01*
X21453131Y26148615D01*
X21558700Y26137150D01*
X21665327Y26148703D01*
X21750258Y26183364D01*
X21813494Y26241131D01*
X21857150Y26320065D01*
X21883344Y26418226D01*
X21892075Y26535613D01*
X21892075Y26605463D01*
X22223863Y26605463D01*
X22223863Y26800725D01*
X21253900Y26800725D01*
X21242787Y26736431D01*
X21235644Y26664200D01*
X21231675Y26592763D01*
X21230087Y26530850D01*
X20601570Y26530850D01*
X20601570Y27265863D01*
X21218975Y27265863D01*
X21224134Y27181130D01*
X21239612Y27107906D01*
X21285650Y26994400D01*
X21436462Y27051550D01*
X21398362Y27139656D01*
X21382487Y27251575D01*
X21395011Y27338006D01*
X21432582Y27389864D01*
X21495200Y27407150D01*
X21545206Y27391275D01*
X21583306Y27350794D01*
X21612675Y27295231D01*
X21636487Y27234113D01*
X21675381Y27138069D01*
X21732531Y27045994D01*
X21821431Y26976938D01*
X21881558Y26956697D01*
X21955575Y26949950D01*
X22078011Y26972373D01*
X22169094Y27039644D01*
X22210986Y27109758D01*
X22236122Y27200510D01*
X22244500Y27311900D01*
X22237952Y27421834D01*
X22218306Y27507163D01*
X22169888Y27616700D01*
X22011138Y27559550D01*
X22058763Y27457156D01*
X22075431Y27391077D01*
X22080988Y27311900D01*
X22070669Y27230144D01*
X22042094Y27178550D01*
X22000819Y27152356D01*
X21953988Y27145213D01*
X21900013Y27162675D01*
X21857944Y27207125D01*
X21824606Y27267450D01*
X21796825Y27334125D01*
X21760312Y27426200D01*
X21707925Y27512719D01*
X21629344Y27577013D01*
X21512662Y27602413D01*
X21389631Y27579989D01*
X21296762Y27512719D01*
X21253547Y27445426D01*
X21227618Y27363141D01*
X21218975Y27265863D01*
X20601570Y27265863D01*
X20601570Y27754813D01*
X21114200Y27754813D01*
X22485800Y28196138D01*
X22485800Y28399338D01*
X21114200Y27954838D01*
X21114200Y27754813D01*
X20601570Y27754813D01*
X20601570Y28947025D01*
X21230087Y28947025D01*
X21237231Y28854355D01*
X21258662Y28770019D01*
X21295373Y28696002D01*
X21348356Y28634288D01*
X21417809Y28584877D01*
X21503931Y28547769D01*
X21608111Y28524552D01*
X21731737Y28516813D01*
X21858142Y28525345D01*
X21964306Y28550944D01*
X22051420Y28591623D01*
X22120675Y28645400D01*
X22172864Y28711480D01*
X22208781Y28789069D01*
X22229617Y28876580D01*
X22236563Y28972425D01*
X22231006Y29074819D01*
X22212750Y29181975D01*
X21253900Y29181975D01*
X21234850Y29056563D01*
X21230087Y28947025D01*
X20601570Y28947025D01*
X20601570Y29340725D01*
X21241200Y29340725D01*
X22223863Y29340725D01*
X22223863Y29497888D01*
X22114942Y29543660D01*
X22006199Y29592079D01*
X21897631Y29643144D01*
X21789064Y29696854D01*
X21680320Y29753210D01*
X21571400Y29812213D01*
X22223863Y29812213D01*
X22223863Y29988425D01*
X21241200Y29988425D01*
X21241200Y29831263D01*
X21314027Y29786813D01*
X21392806Y29742363D01*
X21474364Y29698508D01*
X21555525Y29655844D01*
X21635297Y29615363D01*
X21712687Y29578056D01*
X21784125Y29544917D01*
X21846038Y29516938D01*
X21241200Y29516938D01*
X21241200Y29340725D01*
X20601570Y29340725D01*
X20601570Y30386888D01*
X21218975Y30386888D01*
X21227706Y30284494D01*
X21247550Y30205913D01*
X21271362Y30151144D01*
X21290412Y30118600D01*
X21445987Y30169400D01*
X21406300Y30255125D01*
X21388837Y30359900D01*
X21414237Y30477375D01*
X21484881Y30555956D01*
X21592831Y30600406D01*
X21658911Y30610527D01*
X21731737Y30613900D01*
X21838894Y30607726D01*
X21925413Y30589206D01*
X21991294Y30558338D01*
X22053802Y30489678D01*
X22074638Y30394825D01*
X22073050Y30356725D01*
X22068288Y30318625D01*
X21709512Y30318625D01*
X21709512Y30123362D01*
X22200050Y30123362D01*
X22228625Y30232106D01*
X22240531Y30313664D01*
X22244500Y30410700D01*
X22236364Y30498211D01*
X22211956Y30576594D01*
X22171475Y30645055D01*
X22115119Y30702800D01*
X22042888Y30749234D01*
X21954781Y30783763D01*
X21850998Y30805194D01*
X21731737Y30812338D01*
X21613667Y30804003D01*
X21510281Y30779000D01*
X21421977Y30739709D01*
X21349150Y30688513D01*
X21292198Y30626203D01*
X21251519Y30553575D01*
X21227111Y30473009D01*
X21218975Y30386888D01*
X20601570Y30386888D01*
X20601570Y31324968D01*
X22998430Y32044026D01*
X22998430Y20835032D01*
X20601570Y20115974D01*
G37*
G36*
X21722212Y26526088D02*
G01*
X21712886Y26443934D01*
X21684906Y26384800D01*
X21634305Y26349081D01*
X21557112Y26337175D01*
X21483889Y26348883D01*
X21435669Y26384006D01*
X21408880Y26438577D01*
X21399950Y26508625D01*
X21400744Y26557044D01*
X21404712Y26605463D01*
X21722212Y26605463D01*
X21722212Y26526088D01*
G37*
G36*
X22066700Y28969250D02*
G01*
X22066700Y28951788D01*
X22041300Y28839869D01*
X21971450Y28766844D01*
X21865881Y28727156D01*
X21801786Y28718227D01*
X21731737Y28715250D01*
X21607912Y28724775D01*
X21501550Y28758113D01*
X21427731Y28823200D01*
X21399950Y28929563D01*
X21400744Y28958138D01*
X21404712Y28986713D01*
X22065113Y28986713D01*
X22066700Y28969250D01*
G37*
X11130580Y26520000D02*
X10849420Y26520000D01*
X11130580Y25500000D02*
X10849420Y25500000D01*
X28867500Y11172742D02*
X28867500Y11647258D01*
X29912500Y11172742D02*
X29912500Y11647258D01*
G36*
X19240992Y21091686D02*
G01*
X19305881Y21087519D01*
X19414625Y21065294D01*
X19487650Y21018462D01*
X19514638Y20937500D01*
X19487650Y20857331D01*
X19413831Y20809706D01*
X19305088Y20787481D01*
X19240794Y20783314D01*
X19171737Y20781925D01*
X19102483Y20783314D01*
X19037594Y20787481D01*
X18928850Y20809706D01*
X18855825Y20856537D01*
X18828837Y20937500D01*
X18855825Y21018462D01*
X18929644Y21065294D01*
X19038387Y21087519D01*
X19102681Y21091686D01*
X19171737Y21093075D01*
X19240992Y21091686D01*
G37*
G36*
X18041570Y19351799D02*
G01*
X18041570Y20937500D01*
X18658975Y20937500D01*
X18673351Y20831314D01*
X18716478Y20743472D01*
X18788356Y20673975D01*
X18860836Y20634387D01*
X18948892Y20606109D01*
X19052526Y20589143D01*
X19171737Y20583487D01*
X19290949Y20589242D01*
X19394583Y20606506D01*
X19482639Y20635280D01*
X19555119Y20675562D01*
X19626997Y20745412D01*
X19670124Y20832196D01*
X19684500Y20935912D01*
X19670124Y21042187D01*
X19626997Y21130293D01*
X19555119Y21200231D01*
X19482639Y21240167D01*
X19394583Y21268692D01*
X19290949Y21285807D01*
X19171737Y21291512D01*
X19052526Y21285659D01*
X18948892Y21268097D01*
X18860836Y21238827D01*
X18788356Y21197850D01*
X18716478Y21127294D01*
X18673351Y21040511D01*
X18658975Y20937500D01*
X18041570Y20937500D01*
X18041570Y21713787D01*
X18658975Y21713787D01*
X18664134Y21629055D01*
X18679612Y21555831D01*
X18725650Y21442325D01*
X18876462Y21499475D01*
X18838362Y21587581D01*
X18822487Y21699500D01*
X18835011Y21785931D01*
X18872582Y21837789D01*
X18935200Y21855075D01*
X18985206Y21839200D01*
X19023306Y21798719D01*
X19052675Y21743156D01*
X19076487Y21682037D01*
X19115381Y21585994D01*
X19172531Y21493919D01*
X19261431Y21424862D01*
X19321558Y21404622D01*
X19395575Y21397875D01*
X19518011Y21420298D01*
X19609094Y21487569D01*
X19650986Y21557683D01*
X19676122Y21648435D01*
X19684500Y21759825D01*
X19677952Y21869759D01*
X19658306Y21955087D01*
X19609888Y22064625D01*
X19451138Y22007475D01*
X19498763Y21905081D01*
X19515431Y21839002D01*
X19520988Y21759825D01*
X19510669Y21678069D01*
X19482094Y21626475D01*
X19440819Y21600281D01*
X19393988Y21593137D01*
X19340013Y21610600D01*
X19297944Y21655050D01*
X19264606Y21715375D01*
X19236825Y21782050D01*
X19200312Y21874125D01*
X19147925Y21960644D01*
X19069344Y22024937D01*
X18952662Y22050337D01*
X18829631Y22027914D01*
X18736762Y21960644D01*
X18693547Y21893351D01*
X18667618Y21811066D01*
X18658975Y21713787D01*
X18041570Y21713787D01*
X18041570Y22212262D01*
X18681200Y22212262D01*
X18843125Y22212262D01*
X18843125Y22424987D01*
X19501938Y22424987D01*
X19501938Y22212262D01*
X19663863Y22212262D01*
X19663863Y22836150D01*
X19501938Y22836150D01*
X19501938Y22621837D01*
X18843125Y22621837D01*
X18843125Y22836150D01*
X18681200Y22836150D01*
X18681200Y22212262D01*
X18041570Y22212262D01*
X18041570Y23017125D01*
X18681200Y23017125D01*
X18808200Y23006211D01*
X18932025Y22995694D01*
X19053667Y22986169D01*
X19174119Y22978231D01*
X19294372Y22971683D01*
X19415419Y22966325D01*
X19538252Y22961959D01*
X19663863Y22958387D01*
X19663863Y23137775D01*
X18900275Y23128250D01*
X19316200Y23248900D01*
X19316200Y23391775D01*
X18900275Y23507662D01*
X19663863Y23499725D01*
X19663863Y23679112D01*
X19540831Y23674152D01*
X19413038Y23668794D01*
X19283259Y23663039D01*
X19154275Y23656887D01*
X19027672Y23649942D01*
X18905037Y23641806D01*
X18788753Y23632480D01*
X18681200Y23621962D01*
X18681200Y23460037D01*
X18766925Y23432256D01*
X18879637Y23396537D01*
X19001875Y23358437D01*
X19116175Y23321925D01*
X18994731Y23282237D01*
X18874081Y23242550D01*
X18765337Y23207625D01*
X18681200Y23179050D01*
X18681200Y23017125D01*
X18041570Y23017125D01*
X18041570Y23728325D01*
X19755938Y23728325D01*
X19925800Y23728325D01*
X19925800Y24496675D01*
X19755938Y24496675D01*
X19755938Y23728325D01*
X18041570Y23728325D01*
X18041570Y24769725D01*
X18681200Y24769725D01*
X19501938Y24769725D01*
X19501938Y24574462D01*
X19663863Y24574462D01*
X19663863Y25171362D01*
X19501938Y25171362D01*
X19501938Y24964987D01*
X18952662Y24964987D01*
X19009019Y25066587D01*
X19047912Y25163425D01*
X18885987Y25226925D01*
X18849475Y25144375D01*
X18800262Y25055475D01*
X18743112Y24971337D01*
X18681200Y24903075D01*
X18681200Y24769725D01*
X18041570Y24769725D01*
X18041570Y25387262D01*
X18681200Y25387262D01*
X18843125Y25387262D01*
X18843125Y25599987D01*
X19501938Y25599987D01*
X19501938Y25387262D01*
X19663863Y25387262D01*
X19663863Y26011150D01*
X19501938Y26011150D01*
X19501938Y25796838D01*
X18843125Y25796838D01*
X18843125Y26011150D01*
X18681200Y26011150D01*
X18681200Y25387262D01*
X18041570Y25387262D01*
X18041570Y26535025D01*
X18670087Y26535025D01*
X18678642Y26419490D01*
X18704307Y26322653D01*
X18747081Y26244513D01*
X18809258Y26187186D01*
X18893131Y26152790D01*
X18998700Y26141325D01*
X19105327Y26152878D01*
X19190258Y26187539D01*
X19253494Y26245306D01*
X19297150Y26324240D01*
X19323344Y26422401D01*
X19332075Y26539788D01*
X19332075Y26609638D01*
X19663863Y26609638D01*
X19663863Y26804900D01*
X18693900Y26804900D01*
X18682787Y26740606D01*
X18675644Y26668375D01*
X18671675Y26596938D01*
X18670087Y26535025D01*
X18041570Y26535025D01*
X18041570Y27270038D01*
X18658975Y27270038D01*
X18664134Y27185305D01*
X18679612Y27112081D01*
X18725650Y26998575D01*
X18876462Y27055725D01*
X18838362Y27143831D01*
X18822487Y27255750D01*
X18835011Y27342181D01*
X18872582Y27394039D01*
X18935200Y27411325D01*
X18985206Y27395450D01*
X19023306Y27354969D01*
X19052675Y27299406D01*
X19076487Y27238288D01*
X19115381Y27142244D01*
X19172531Y27050169D01*
X19261431Y26981113D01*
X19321558Y26960872D01*
X19395575Y26954125D01*
X19518011Y26976548D01*
X19609094Y27043819D01*
X19650986Y27113933D01*
X19676122Y27204685D01*
X19684500Y27316075D01*
X19677952Y27426009D01*
X19658306Y27511338D01*
X19609888Y27620875D01*
X19451138Y27563725D01*
X19498763Y27461331D01*
X19515431Y27395252D01*
X19520988Y27316075D01*
X19510669Y27234319D01*
X19482094Y27182725D01*
X19440819Y27156531D01*
X19393988Y27149388D01*
X19340013Y27166850D01*
X19297944Y27211300D01*
X19264606Y27271625D01*
X19236825Y27338300D01*
X19200312Y27430375D01*
X19147925Y27516894D01*
X19069344Y27581188D01*
X18952662Y27606588D01*
X18829631Y27584164D01*
X18736762Y27516894D01*
X18693547Y27449601D01*
X18667618Y27367316D01*
X18658975Y27270038D01*
X18041570Y27270038D01*
X18041570Y27758988D01*
X18554200Y27758988D01*
X19925800Y28200313D01*
X19925800Y28403513D01*
X18554200Y27959013D01*
X18554200Y27758988D01*
X18041570Y27758988D01*
X18041570Y28951200D01*
X18670087Y28951200D01*
X18677231Y28858530D01*
X18698662Y28774194D01*
X18735373Y28700177D01*
X18788356Y28638463D01*
X18857809Y28589052D01*
X18943931Y28551944D01*
X19048111Y28528727D01*
X19171737Y28520988D01*
X19298142Y28529520D01*
X19404306Y28555119D01*
X19491420Y28595798D01*
X19560675Y28649575D01*
X19612864Y28715655D01*
X19648781Y28793244D01*
X19669617Y28880755D01*
X19676563Y28976600D01*
X19671006Y29078994D01*
X19652750Y29186150D01*
X18693900Y29186150D01*
X18674850Y29060738D01*
X18670087Y28951200D01*
X18041570Y28951200D01*
X18041570Y29344900D01*
X18681200Y29344900D01*
X19663863Y29344900D01*
X19663863Y29502063D01*
X19554942Y29547835D01*
X19446199Y29596254D01*
X19337631Y29647319D01*
X19229064Y29701029D01*
X19120320Y29757385D01*
X19011400Y29816388D01*
X19663863Y29816388D01*
X19663863Y29992600D01*
X18681200Y29992600D01*
X18681200Y29835438D01*
X18754027Y29790988D01*
X18832806Y29746538D01*
X18914364Y29702683D01*
X18995525Y29660019D01*
X19075297Y29619538D01*
X19152687Y29582231D01*
X19224125Y29549092D01*
X19286038Y29521113D01*
X18681200Y29521113D01*
X18681200Y29344900D01*
X18041570Y29344900D01*
X18041570Y30391063D01*
X18658975Y30391063D01*
X18667706Y30288669D01*
X18687550Y30210088D01*
X18711362Y30155319D01*
X18730412Y30122775D01*
X18885987Y30173575D01*
X18846300Y30259300D01*
X18828837Y30364075D01*
X18854237Y30481550D01*
X18924881Y30560131D01*
X19032831Y30604581D01*
X19098911Y30614702D01*
X19171737Y30618075D01*
X19278894Y30611901D01*
X19365413Y30593381D01*
X19431294Y30562513D01*
X19493802Y30493853D01*
X19514638Y30399000D01*
X19513050Y30360900D01*
X19508288Y30322800D01*
X19149512Y30322800D01*
X19149512Y30127538D01*
X19640050Y30127538D01*
X19668625Y30236281D01*
X19680531Y30317839D01*
X19684500Y30414875D01*
X19676364Y30502386D01*
X19651956Y30580769D01*
X19611475Y30649230D01*
X19555119Y30706975D01*
X19482888Y30753409D01*
X19394781Y30787938D01*
X19290998Y30809369D01*
X19171737Y30816513D01*
X19053667Y30808178D01*
X18950281Y30783175D01*
X18861977Y30743884D01*
X18789150Y30692688D01*
X18732198Y30630378D01*
X18691519Y30557750D01*
X18667111Y30477184D01*
X18658975Y30391063D01*
X18041570Y30391063D01*
X18041570Y31329143D01*
X20438430Y32048201D01*
X20438430Y20070857D01*
X18041570Y19351799D01*
G37*
G36*
X19162212Y26530263D02*
G01*
X19152886Y26448109D01*
X19124906Y26388975D01*
X19074305Y26353256D01*
X18997112Y26341350D01*
X18923889Y26353058D01*
X18875669Y26388181D01*
X18848880Y26442752D01*
X18839950Y26512800D01*
X18840744Y26561219D01*
X18844712Y26609638D01*
X19162212Y26609638D01*
X19162212Y26530263D01*
G37*
G36*
X19506700Y28973425D02*
G01*
X19506700Y28955963D01*
X19481300Y28844044D01*
X19411450Y28771019D01*
X19305881Y28731331D01*
X19241786Y28722402D01*
X19171737Y28719425D01*
X19047912Y28728950D01*
X18941550Y28762288D01*
X18867731Y28827375D01*
X18839950Y28933738D01*
X18840744Y28962313D01*
X18844712Y28990888D01*
X19505113Y28990888D01*
X19506700Y28973425D01*
G37*
X21750000Y2244420D02*
X21750000Y2525580D01*
X20730000Y2244420D02*
X20730000Y2525580D01*
X31180000Y33855000D02*
X30160000Y33855000D01*
X18480000Y33855000D02*
X17910000Y33855000D01*
X23560000Y39055000D02*
X22540000Y39055000D01*
X28640000Y33855000D02*
X27620000Y33855000D01*
X26100000Y33855000D02*
X25080000Y33855000D01*
X35810000Y39055000D02*
X35240000Y39055000D01*
X35240000Y32415000D02*
X35240000Y33855000D01*
X21020000Y33855000D02*
X20000000Y33855000D01*
X17910000Y33855000D02*
X17910000Y39055000D01*
X33720000Y39055000D02*
X32700000Y39055000D01*
X18480000Y39055000D02*
X17910000Y39055000D01*
X35810000Y33855000D02*
X35810000Y39055000D01*
X31180000Y39055000D02*
X30160000Y39055000D01*
X33720000Y33855000D02*
X32700000Y33855000D01*
X21020000Y39055000D02*
X20000000Y39055000D01*
X35810000Y33855000D02*
X35240000Y33855000D01*
X23560000Y33855000D02*
X22540000Y33855000D01*
X28640000Y39055000D02*
X27620000Y39055000D01*
X26100000Y39055000D02*
X25080000Y39055000D01*
G36*
X28211570Y24090349D02*
G01*
X28211570Y25355375D01*
X28851200Y25355375D01*
X28948831Y25408556D01*
X29004791Y25441695D01*
X29063131Y25479200D01*
X29123258Y25520277D01*
X29184575Y25564131D01*
X29245297Y25610367D01*
X29303637Y25658587D01*
X29354834Y25608978D01*
X29413175Y25558575D01*
X29477270Y25509164D01*
X29545731Y25462531D01*
X29617169Y25419470D01*
X29690194Y25380775D01*
X29763020Y25347834D01*
X29833863Y25322037D01*
X29833863Y25542700D01*
X29714006Y25592706D01*
X29650506Y25627036D01*
X29588594Y25664937D01*
X29529459Y25705617D01*
X29474294Y25748281D01*
X29384600Y25831625D01*
X29833863Y25831625D01*
X29833863Y26026887D01*
X28851200Y26026887D01*
X28851200Y25831625D01*
X29259187Y25831625D01*
X29160762Y25758600D01*
X29052812Y25686369D01*
X28946450Y25623662D01*
X28851200Y25576037D01*
X28851200Y25355375D01*
X28211570Y25355375D01*
X28211570Y26403125D01*
X28828975Y26403125D01*
X28837706Y26308669D01*
X28857550Y26234850D01*
X28881362Y26181669D01*
X28900412Y26149125D01*
X29055987Y26199925D01*
X29015506Y26288031D01*
X28998837Y26406300D01*
X29015506Y26495994D01*
X29071069Y26573781D01*
X29175050Y26629344D01*
X29248075Y26645417D01*
X29336975Y26650775D01*
X29440427Y26644337D01*
X29526417Y26625022D01*
X29594944Y26592831D01*
X29662214Y26516433D01*
X29684638Y26403125D01*
X29667175Y26276919D01*
X29632250Y26196750D01*
X29786238Y26147537D01*
X29833069Y26259456D01*
X29849142Y26335458D01*
X29854500Y26422175D01*
X29839683Y26549881D01*
X29795233Y26655714D01*
X29721150Y26739675D01*
X29647430Y26787598D01*
X29559622Y26821828D01*
X29457724Y26842366D01*
X29341737Y26849212D01*
X29226247Y26840878D01*
X29124250Y26815875D01*
X29036342Y26775989D01*
X28963119Y26723006D01*
X28905175Y26657919D01*
X28863106Y26581719D01*
X28837508Y26496192D01*
X28828975Y26403125D01*
X28211570Y26403125D01*
X28211570Y27271487D01*
X28828975Y27271487D01*
X28834134Y27186755D01*
X28849612Y27113531D01*
X28895650Y27000025D01*
X29046462Y27057175D01*
X29008362Y27145281D01*
X28992487Y27257200D01*
X29005011Y27343631D01*
X29042582Y27395489D01*
X29105200Y27412775D01*
X29155206Y27396900D01*
X29193306Y27356419D01*
X29222675Y27300856D01*
X29246487Y27239737D01*
X29285381Y27143694D01*
X29342531Y27051619D01*
X29431431Y26982562D01*
X29491558Y26962322D01*
X29565575Y26955575D01*
X29688011Y26977998D01*
X29779094Y27045269D01*
X29820986Y27115383D01*
X29846122Y27206135D01*
X29854500Y27317525D01*
X29847952Y27427459D01*
X29828306Y27512787D01*
X29779888Y27622325D01*
X29621138Y27565175D01*
X29668763Y27462781D01*
X29685431Y27396702D01*
X29690988Y27317525D01*
X29680669Y27235769D01*
X29652094Y27184175D01*
X29610819Y27157981D01*
X29563988Y27150837D01*
X29510013Y27168300D01*
X29467944Y27212750D01*
X29434606Y27273075D01*
X29406825Y27339750D01*
X29370312Y27431825D01*
X29317925Y27518344D01*
X29239344Y27582637D01*
X29122662Y27608037D01*
X28999631Y27585614D01*
X28906762Y27518344D01*
X28863547Y27451051D01*
X28837618Y27368766D01*
X28828975Y27271487D01*
X28211570Y27271487D01*
X28211570Y27760437D01*
X28724200Y27760437D01*
X30095800Y28201763D01*
X30095800Y28404963D01*
X28724200Y27960462D01*
X28724200Y27760437D01*
X28211570Y27760437D01*
X28211570Y28952650D01*
X28840087Y28952650D01*
X28847231Y28859980D01*
X28868662Y28775644D01*
X28905373Y28701627D01*
X28958356Y28639913D01*
X29027809Y28590502D01*
X29113931Y28553394D01*
X29218111Y28530177D01*
X29341737Y28522438D01*
X29468142Y28530970D01*
X29574306Y28556569D01*
X29661420Y28597248D01*
X29730675Y28651025D01*
X29782864Y28717105D01*
X29818781Y28794694D01*
X29839617Y28882205D01*
X29846563Y28978050D01*
X29841006Y29080444D01*
X29822750Y29187600D01*
X28863900Y29187600D01*
X28844850Y29062188D01*
X28840087Y28952650D01*
X28211570Y28952650D01*
X28211570Y29346350D01*
X28851200Y29346350D01*
X29833863Y29346350D01*
X29833863Y29503513D01*
X29724942Y29549285D01*
X29616199Y29597704D01*
X29507631Y29648769D01*
X29399064Y29702479D01*
X29290320Y29758835D01*
X29181400Y29817838D01*
X29833863Y29817838D01*
X29833863Y29994050D01*
X28851200Y29994050D01*
X28851200Y29836888D01*
X28924027Y29792438D01*
X29002806Y29747988D01*
X29084364Y29704133D01*
X29165525Y29661469D01*
X29245297Y29620988D01*
X29322687Y29583681D01*
X29394125Y29550542D01*
X29456038Y29522563D01*
X28851200Y29522563D01*
X28851200Y29346350D01*
X28211570Y29346350D01*
X28211570Y30392513D01*
X28828975Y30392513D01*
X28837706Y30290119D01*
X28857550Y30211538D01*
X28881362Y30156769D01*
X28900412Y30124225D01*
X29055987Y30175025D01*
X29016300Y30260750D01*
X28998837Y30365525D01*
X29024237Y30483000D01*
X29094881Y30561581D01*
X29202831Y30606031D01*
X29268911Y30616152D01*
X29341737Y30619525D01*
X29448894Y30613351D01*
X29535413Y30594831D01*
X29601294Y30563963D01*
X29663802Y30495303D01*
X29684638Y30400450D01*
X29683050Y30362350D01*
X29678288Y30324250D01*
X29319512Y30324250D01*
X29319512Y30128988D01*
X29810050Y30128988D01*
X29838625Y30237731D01*
X29850531Y30319289D01*
X29854500Y30416325D01*
X29846364Y30503836D01*
X29821956Y30582219D01*
X29781475Y30650680D01*
X29725119Y30708425D01*
X29652888Y30754859D01*
X29564781Y30789388D01*
X29460998Y30810819D01*
X29341737Y30817963D01*
X29223667Y30809628D01*
X29120281Y30784625D01*
X29031977Y30745334D01*
X28959150Y30694138D01*
X28902198Y30631828D01*
X28861519Y30559200D01*
X28837111Y30478634D01*
X28828975Y30392513D01*
X28211570Y30392513D01*
X28211570Y31330593D01*
X30608430Y32049651D01*
X30608430Y24809407D01*
X28211570Y24090349D01*
G37*
G36*
X29676700Y28974875D02*
G01*
X29676700Y28957413D01*
X29651300Y28845494D01*
X29581450Y28772469D01*
X29475881Y28732781D01*
X29411786Y28723852D01*
X29341737Y28720875D01*
X29217912Y28730400D01*
X29111550Y28763738D01*
X29037731Y28828825D01*
X29009950Y28935188D01*
X29010744Y28963763D01*
X29014712Y28992338D01*
X29675113Y28992338D01*
X29676700Y28974875D01*
G37*
X17952742Y12362500D02*
X18427258Y12362500D01*
X17952742Y13407500D02*
X18427258Y13407500D01*
X30630000Y9444420D02*
X30630000Y9725580D01*
X31650000Y9444420D02*
X31650000Y9725580D01*
G36*
X34765113Y29713319D02*
G01*
X34766700Y29664900D01*
X34761144Y29599813D01*
X34740506Y29543456D01*
X34697644Y29502975D01*
X34627000Y29487100D01*
X34524606Y29532344D01*
X34493650Y29653788D01*
X34493650Y29758563D01*
X34760350Y29758563D01*
X34765113Y29713319D01*
G37*
G36*
X34331725Y29682363D02*
G01*
X34299181Y29569650D01*
X34209487Y29531550D01*
X34153131Y29542663D01*
X34119794Y29572825D01*
X34103919Y29617275D01*
X34099950Y29669663D01*
X34101537Y29715700D01*
X34106300Y29758563D01*
X34331725Y29758563D01*
X34331725Y29682363D01*
G37*
G36*
X35698430Y32044351D02*
G01*
X35698430Y23254707D01*
X33301570Y22535649D01*
X33301570Y24127700D01*
X33918975Y24127700D01*
X33924134Y24050508D01*
X33939612Y23984031D01*
X33997556Y23883225D01*
X34085662Y23824487D01*
X34195200Y23805437D01*
X34307912Y23838775D01*
X34390462Y23927675D01*
X34429753Y23860008D01*
X34484125Y23809406D01*
X34551991Y23777855D01*
X34631763Y23767337D01*
X34757175Y23789562D01*
X34856394Y23857825D01*
X34893700Y23910212D01*
X34921481Y23975300D01*
X34938745Y24053484D01*
X34944500Y24145162D01*
X34938944Y24222156D01*
X34925450Y24299944D01*
X34907988Y24369000D01*
X34890525Y24418212D01*
X34727013Y24380112D01*
X34760350Y24285656D01*
X34773447Y24221958D01*
X34777813Y24146750D01*
X34767097Y24061620D01*
X34734950Y24006256D01*
X34628588Y23965775D01*
X34562508Y23981253D01*
X34519844Y24027687D01*
X34496627Y24097934D01*
X34488887Y24184850D01*
X34488887Y24245175D01*
X34326962Y24245175D01*
X34326962Y24172150D01*
X34320612Y24111825D01*
X34299975Y24057850D01*
X34261875Y24018956D01*
X34201550Y24003875D01*
X34116619Y24036419D01*
X34085662Y24126112D01*
X34103919Y24236444D01*
X34149162Y24330900D01*
X34006287Y24400750D01*
X33948344Y24287244D01*
X33926317Y24212036D01*
X33918975Y24127700D01*
X33301570Y24127700D01*
X33301570Y24502350D01*
X33941200Y24502350D01*
X34042006Y24523583D01*
X34153925Y24549181D01*
X34274377Y24578947D01*
X34400781Y24612681D01*
X34487565Y24637287D01*
X34575406Y24663481D01*
X34664306Y24691262D01*
X34752765Y24720190D01*
X34839284Y24749824D01*
X34923863Y24780162D01*
X34923863Y24981775D01*
X34807181Y25021066D01*
X34676213Y25062737D01*
X34584226Y25090783D01*
X34492415Y25117771D01*
X34400781Y25143700D01*
X34310911Y25168218D01*
X34224392Y25190972D01*
X34141225Y25211962D01*
X34030100Y25238156D01*
X33941200Y25256413D01*
X33941200Y25050037D01*
X34023552Y25038131D01*
X34118206Y25021462D01*
X34220600Y25001420D01*
X34326169Y24979394D01*
X34432531Y24955581D01*
X34537306Y24930181D01*
X34635930Y24904186D01*
X34723838Y24878587D01*
X34637120Y24853187D01*
X34538894Y24827787D01*
X34434119Y24803181D01*
X34327756Y24780162D01*
X34221989Y24758731D01*
X34119000Y24738887D01*
X34023750Y24721425D01*
X33941200Y24707137D01*
X33941200Y24502350D01*
X33301570Y24502350D01*
X33301570Y25715200D01*
X33918975Y25715200D01*
X33924134Y25638008D01*
X33939612Y25571531D01*
X33997556Y25470725D01*
X34085662Y25411987D01*
X34195200Y25392937D01*
X34307912Y25426275D01*
X34390462Y25515175D01*
X34429753Y25447508D01*
X34484125Y25396906D01*
X34551991Y25365355D01*
X34631763Y25354837D01*
X34757175Y25377062D01*
X34856394Y25445325D01*
X34893700Y25497712D01*
X34921481Y25562800D01*
X34938745Y25640984D01*
X34944500Y25732662D01*
X34938944Y25809656D01*
X34925450Y25887444D01*
X34907988Y25956500D01*
X34890525Y26005712D01*
X34727013Y25967612D01*
X34760350Y25873156D01*
X34773447Y25809458D01*
X34777813Y25734250D01*
X34767097Y25649120D01*
X34734950Y25593756D01*
X34628588Y25553275D01*
X34562508Y25568753D01*
X34519844Y25615187D01*
X34496627Y25685434D01*
X34488887Y25772350D01*
X34488887Y25832675D01*
X34326962Y25832675D01*
X34326962Y25759650D01*
X34320612Y25699325D01*
X34299975Y25645350D01*
X34261875Y25606456D01*
X34201550Y25591375D01*
X34116619Y25623919D01*
X34085662Y25713612D01*
X34103919Y25823944D01*
X34149162Y25918400D01*
X34006287Y25988250D01*
X33948344Y25874744D01*
X33926317Y25799536D01*
X33918975Y25715200D01*
X33301570Y25715200D01*
X33301570Y26383537D01*
X34150750Y26383537D01*
X34426975Y26383537D01*
X34426975Y26134300D01*
X34587313Y26134300D01*
X34587313Y26383537D01*
X34863538Y26383537D01*
X34863538Y26551812D01*
X34587313Y26551812D01*
X34587313Y26801050D01*
X34426975Y26801050D01*
X34426975Y26551812D01*
X34150750Y26551812D01*
X34150750Y26383537D01*
X33301570Y26383537D01*
X33301570Y26939162D01*
X33814200Y26939162D01*
X35185800Y27380488D01*
X35185800Y27583688D01*
X33814200Y27139187D01*
X33814200Y26939162D01*
X33301570Y26939162D01*
X33301570Y28037713D01*
X33918975Y28037713D01*
X33924134Y27952980D01*
X33939612Y27879756D01*
X33985650Y27766250D01*
X34136462Y27823400D01*
X34098362Y27911506D01*
X34082487Y28023425D01*
X34095011Y28109856D01*
X34132582Y28161714D01*
X34195200Y28179000D01*
X34245206Y28163125D01*
X34283306Y28122644D01*
X34312675Y28067081D01*
X34336487Y28005963D01*
X34375381Y27909919D01*
X34432531Y27817844D01*
X34521431Y27748788D01*
X34581558Y27728547D01*
X34655575Y27721800D01*
X34778011Y27744223D01*
X34869094Y27811494D01*
X34910986Y27881608D01*
X34936122Y27972360D01*
X34944500Y28083750D01*
X34937952Y28193684D01*
X34918306Y28279013D01*
X34869888Y28388550D01*
X34711138Y28331400D01*
X34758763Y28229006D01*
X34775431Y28162927D01*
X34780988Y28083750D01*
X34770669Y28001994D01*
X34742094Y27950400D01*
X34700819Y27924206D01*
X34653988Y27917063D01*
X34600013Y27934525D01*
X34557944Y27978975D01*
X34524606Y28039300D01*
X34496825Y28105975D01*
X34460312Y28198050D01*
X34407925Y28284569D01*
X34329344Y28348863D01*
X34212662Y28374263D01*
X34089631Y28351839D01*
X33996762Y28284569D01*
X33953547Y28217276D01*
X33927618Y28134991D01*
X33918975Y28037713D01*
X33301570Y28037713D01*
X33301570Y28513963D01*
X33941200Y28513963D01*
X34568263Y28513963D01*
X34650019Y28517931D01*
X34723838Y28529838D01*
X34788528Y28551666D01*
X34842900Y28585400D01*
X34886358Y28631438D01*
X34918306Y28690175D01*
X34937952Y28763200D01*
X34944500Y28852100D01*
X34937952Y28939611D01*
X34918306Y29011644D01*
X34842900Y29114038D01*
X34788528Y29146581D01*
X34723838Y29168013D01*
X34650019Y29179919D01*
X34568263Y29183888D01*
X33941200Y29183888D01*
X33941200Y28987038D01*
X34555563Y28987038D01*
X34659544Y28980688D01*
X34727013Y28959256D01*
X34763525Y28917188D01*
X34774638Y28848925D01*
X34763525Y28780663D01*
X34726219Y28737800D01*
X34657956Y28715575D01*
X34553975Y28709225D01*
X33941200Y28709225D01*
X33941200Y28513963D01*
X33301570Y28513963D01*
X33301570Y29699825D01*
X33930087Y29699825D01*
X33935842Y29599019D01*
X33953106Y29518850D01*
X34013431Y29409313D01*
X34096775Y29355338D01*
X34188850Y29341050D01*
X34254731Y29349583D01*
X34312675Y29375181D01*
X34398400Y29466463D01*
X34441262Y29382523D01*
X34496825Y29330731D01*
X34560325Y29303942D01*
X34627000Y29295012D01*
X34708558Y29302553D01*
X34775431Y29325175D01*
X34870681Y29406931D01*
X34901241Y29463288D01*
X34921481Y29529169D01*
X34932792Y29602392D01*
X34936563Y29680775D01*
X34934777Y29747053D01*
X34929419Y29815713D01*
X34920489Y29885166D01*
X34907988Y29953825D01*
X33953900Y29953825D01*
X33937231Y29831588D01*
X33930087Y29699825D01*
X33301570Y29699825D01*
X33301570Y30606288D01*
X33941200Y30606288D01*
X34023552Y30594381D01*
X34118206Y30577713D01*
X34220600Y30557670D01*
X34326169Y30535644D01*
X34432531Y30511831D01*
X34537306Y30486431D01*
X34635930Y30460436D01*
X34723838Y30434838D01*
X34637120Y30409438D01*
X34538894Y30384038D01*
X34434119Y30359431D01*
X34327756Y30336413D01*
X34221989Y30314981D01*
X34119000Y30295138D01*
X34023750Y30277675D01*
X33941200Y30263388D01*
X33941200Y30058600D01*
X34042006Y30079833D01*
X34153925Y30105431D01*
X34274377Y30135197D01*
X34400781Y30168931D01*
X34487565Y30193538D01*
X34575406Y30219731D01*
X34664306Y30247513D01*
X34752765Y30276440D01*
X34839284Y30306074D01*
X34923863Y30336413D01*
X34923863Y30538025D01*
X34807181Y30577316D01*
X34676213Y30618988D01*
X34584226Y30647033D01*
X34492415Y30674021D01*
X34400781Y30699950D01*
X34310911Y30724468D01*
X34224392Y30747222D01*
X34141225Y30768213D01*
X34030100Y30794406D01*
X33941200Y30812663D01*
X33941200Y30606288D01*
X33301570Y30606288D01*
X33301570Y31325293D01*
X35698430Y32044351D01*
G37*
X23675000Y11800580D02*
X23675000Y11519420D01*
X22655000Y11800580D02*
X22655000Y11519420D01*
%LPC*%
D11*
X840000Y38510000D03*
X3656726Y39676726D03*
D12*
X2490000Y38510000D03*
D11*
X3656726Y37343274D03*
X4140000Y38510000D03*
X2490000Y36860000D03*
X1323274Y37343274D03*
X2490000Y40160000D03*
X1323274Y39676726D03*
X2470000Y33825000D03*
X2470000Y31285000D03*
X2470000Y32555000D03*
X2470000Y28745000D03*
X2470000Y30015000D03*
D13*
X1315000Y33190000D03*
X1315000Y31920000D03*
X1315000Y30650000D03*
X1315000Y29380000D03*
D11*
X40140000Y2510000D03*
X39656726Y3676726D03*
X37323274Y1343274D03*
X38490000Y4160000D03*
X37323274Y3676726D03*
D12*
X38490000Y2510000D03*
D11*
X36840000Y2510000D03*
X38490000Y860000D03*
X39656726Y1343274D03*
D12*
X2490000Y2510000D03*
D11*
X4140000Y2510000D03*
X2490000Y860000D03*
X840000Y2510000D03*
X3656726Y1343274D03*
X1323274Y3676726D03*
X1323274Y1343274D03*
X3656726Y3676726D03*
X2490000Y4160000D03*
X36840000Y38510000D03*
D12*
X38490000Y38510000D03*
D11*
X38490000Y40160000D03*
X39656726Y39676726D03*
X37323274Y39676726D03*
X38490000Y36860000D03*
X37323274Y37343274D03*
X39656726Y37343274D03*
X40140000Y38510000D03*
D14*
X5035000Y12400000D03*
X5035000Y6620000D03*
D15*
X1355000Y5190000D03*
D16*
X5535000Y5190000D03*
D15*
X1355000Y13830000D03*
D16*
X5535000Y13830000D03*
D17*
X17415000Y9935000D03*
X18965000Y9935000D03*
D18*
X15440000Y1160000D03*
X17090000Y1160000D03*
D19*
X27002500Y7210000D03*
X27002500Y8160000D03*
X27002500Y9110000D03*
X29277500Y9110000D03*
X29277500Y8160000D03*
X29277500Y7210000D03*
D18*
X15440000Y2660000D03*
X17090000Y2660000D03*
D20*
X29190000Y4910000D03*
X27040000Y4910000D03*
D21*
X16015000Y12885000D03*
X14365000Y12885000D03*
D22*
X15965000Y9935000D03*
X14415000Y9935000D03*
D18*
X17365000Y11410000D03*
X19015000Y11410000D03*
D17*
X15490000Y4160000D03*
X17040000Y4160000D03*
D22*
X14015000Y6010000D03*
X12465000Y6010000D03*
D23*
X11270000Y16910000D03*
X10000000Y16910000D03*
X8730000Y16910000D03*
X7460000Y16910000D03*
X7460000Y24110000D03*
X8730000Y24110000D03*
X10000000Y24110000D03*
X11270000Y24110000D03*
D24*
X12315000Y10585000D03*
X12315000Y12735000D03*
D17*
X19715000Y6010000D03*
X21265000Y6010000D03*
X31115000Y7210000D03*
X32665000Y7210000D03*
D22*
X14015000Y7480000D03*
X12465000Y7480000D03*
D21*
X16015000Y11410000D03*
X14365000Y11410000D03*
D25*
X19140000Y3460000D03*
X19140000Y1310000D03*
D26*
X26890000Y10585000D03*
X26890000Y12235000D03*
D17*
X19715000Y7490000D03*
X21265000Y7490000D03*
D27*
X30290000Y1910000D03*
X26990000Y1910000D03*
D21*
X11815000Y15010000D03*
X10165000Y15010000D03*
D24*
X21065000Y10585000D03*
X21065000Y12735000D03*
D28*
X32640000Y8810000D03*
X32640000Y10360000D03*
D29*
X16065000Y8510000D03*
X16465000Y8510000D03*
X16865000Y8510000D03*
X17265000Y8510000D03*
X17665000Y8510000D03*
D30*
X18315000Y7860000D03*
X18315000Y7460000D03*
X18315000Y7060000D03*
X18315000Y6660000D03*
X18315000Y6260000D03*
D29*
X17665000Y5610000D03*
X17265000Y5610000D03*
X16865000Y5610000D03*
X16465000Y5610000D03*
X16065000Y5610000D03*
D30*
X15415000Y6260000D03*
X15415000Y6660000D03*
X15415000Y7060000D03*
X15415000Y7460000D03*
X15415000Y7860000D03*
D31*
X16865000Y7060000D03*
D32*
X10215000Y12435000D03*
X10215000Y10885000D03*
D22*
X11765000Y26010000D03*
X10215000Y26010000D03*
D26*
X29390000Y10585000D03*
X29390000Y12235000D03*
D28*
X21240000Y1610000D03*
X21240000Y3160000D03*
D33*
X34480000Y33930000D03*
X34480000Y38980000D03*
X31940000Y33930000D03*
X31940000Y38980000D03*
X29400000Y33930000D03*
X29400000Y38980000D03*
X26860000Y33930000D03*
X26860000Y38980000D03*
X24320000Y33930000D03*
X24320000Y38980000D03*
X21780000Y33930000D03*
X21780000Y38980000D03*
X19240000Y33930000D03*
X19240000Y38980000D03*
D18*
X17365000Y12885000D03*
X19015000Y12885000D03*
D28*
X31140000Y8810000D03*
X31140000Y10360000D03*
D32*
X23165000Y12435000D03*
X23165000Y10885000D03*
M02*
