%TF.GenerationSoftware,KiCad,Pcbnew,(6.0.1)*%
%TF.CreationDate,2022-02-16T12:07:44+01:00*%
%TF.ProjectId,f1c200s,66316332-3030-4732-9e6b-696361645f70,rev?*%
%TF.SameCoordinates,PX754fbd0PY813b7f0*%
%TF.FileFunction,Soldermask,Bot*%
%TF.FilePolarity,Negative*%
%FSLAX46Y46*%
G04 Gerber Fmt 4.6, Leading zero omitted, Abs format (unit mm)*
G04 Created by KiCad (PCBNEW (6.0.1)) date 2022-02-16 12:07:44*
%MOMM*%
%LPD*%
G01*
G04 APERTURE LIST*
G04 Aperture macros list*
%AMRoundRect*
0 Rectangle with rounded corners*
0 $1 Rounding radius*
0 $2 $3 $4 $5 $6 $7 $8 $9 X,Y pos of 4 corners*
0 Add a 4 corners polygon primitive as box body*
4,1,4,$2,$3,$4,$5,$6,$7,$8,$9,$2,$3,0*
0 Add four circle primitives for the rounded corners*
1,1,$1+$1,$2,$3*
1,1,$1+$1,$4,$5*
1,1,$1+$1,$6,$7*
1,1,$1+$1,$8,$9*
0 Add four rect primitives between the rounded corners*
20,1,$1+$1,$2,$3,$4,$5,0*
20,1,$1+$1,$4,$5,$6,$7,0*
20,1,$1+$1,$6,$7,$8,$9,0*
20,1,$1+$1,$8,$9,$2,$3,0*%
G04 Aperture macros list end*
%ADD10C,0.700000*%
%ADD11C,4.400000*%
%ADD12O,1.500000X0.800000*%
%ADD13C,0.650000*%
%ADD14O,1.600000X1.000000*%
%ADD15O,2.100000X1.000000*%
%ADD16RoundRect,0.225000X-0.225000X-0.250000X0.225000X-0.250000X0.225000X0.250000X-0.225000X0.250000X0*%
%ADD17RoundRect,0.200000X-0.200000X-0.275000X0.200000X-0.275000X0.200000X0.275000X-0.200000X0.275000X0*%
%ADD18RoundRect,0.150000X-0.512500X-0.150000X0.512500X-0.150000X0.512500X0.150000X-0.512500X0.150000X0*%
%ADD19RoundRect,0.250000X0.375000X0.850000X-0.375000X0.850000X-0.375000X-0.850000X0.375000X-0.850000X0*%
%ADD20RoundRect,0.200000X0.200000X0.275000X-0.200000X0.275000X-0.200000X-0.275000X0.200000X-0.275000X0*%
%ADD21RoundRect,0.225000X0.225000X0.250000X-0.225000X0.250000X-0.225000X-0.250000X0.225000X-0.250000X0*%
%ADD22RoundRect,0.150000X0.150000X-0.650000X0.150000X0.650000X-0.150000X0.650000X-0.150000X-0.650000X0*%
%ADD23RoundRect,0.250000X0.850000X-0.375000X0.850000X0.375000X-0.850000X0.375000X-0.850000X-0.375000X0*%
%ADD24RoundRect,0.250000X-0.850000X0.375000X-0.850000X-0.375000X0.850000X-0.375000X0.850000X0.375000X0*%
%ADD25RoundRect,0.200000X0.275000X-0.200000X0.275000X0.200000X-0.275000X0.200000X-0.275000X-0.200000X0*%
%ADD26R,0.900000X1.200000*%
%ADD27RoundRect,0.225000X0.250000X-0.225000X0.250000X0.225000X-0.250000X0.225000X-0.250000X-0.225000X0*%
%ADD28RoundRect,0.050000X-0.050000X0.375000X-0.050000X-0.375000X0.050000X-0.375000X0.050000X0.375000X0*%
%ADD29RoundRect,0.050000X-0.375000X0.050000X-0.375000X-0.050000X0.375000X-0.050000X0.375000X0.050000X0*%
%ADD30R,1.650000X1.650000*%
%ADD31RoundRect,0.225000X-0.250000X0.225000X-0.250000X-0.225000X0.250000X-0.225000X0.250000X0.225000X0*%
%ADD32R,1.000000X3.150000*%
G04 APERTURE END LIST*
D10*
X840000Y38510000D03*
X3656726Y39676726D03*
D11*
X2490000Y38510000D03*
D10*
X3656726Y37343274D03*
X4140000Y38510000D03*
X2490000Y36860000D03*
X1323274Y37343274D03*
X2490000Y40160000D03*
X1323274Y39676726D03*
X2470000Y33825000D03*
X2470000Y31285000D03*
X2470000Y32555000D03*
X2470000Y28745000D03*
X2470000Y30015000D03*
D12*
X1315000Y33190000D03*
X1315000Y31920000D03*
X1315000Y30650000D03*
X1315000Y29380000D03*
D10*
X40140000Y2510000D03*
X39656726Y3676726D03*
X37323274Y1343274D03*
X38490000Y4160000D03*
X37323274Y3676726D03*
D11*
X38490000Y2510000D03*
D10*
X36840000Y2510000D03*
X38490000Y860000D03*
X39656726Y1343274D03*
D11*
X2490000Y2510000D03*
D10*
X4140000Y2510000D03*
X2490000Y860000D03*
X840000Y2510000D03*
X3656726Y1343274D03*
X1323274Y3676726D03*
X1323274Y1343274D03*
X3656726Y3676726D03*
X2490000Y4160000D03*
X36840000Y38510000D03*
D11*
X38490000Y38510000D03*
D10*
X38490000Y40160000D03*
X39656726Y39676726D03*
X37323274Y39676726D03*
X38490000Y36860000D03*
X37323274Y37343274D03*
X39656726Y37343274D03*
X40140000Y38510000D03*
D13*
X5035000Y12400000D03*
X5035000Y6620000D03*
D14*
X1355000Y5190000D03*
D15*
X5535000Y5190000D03*
D14*
X1355000Y13830000D03*
D15*
X5535000Y13830000D03*
D16*
X17415000Y9935000D03*
X18965000Y9935000D03*
D17*
X15440000Y1160000D03*
X17090000Y1160000D03*
D18*
X27002500Y7210000D03*
X27002500Y8160000D03*
X27002500Y9110000D03*
X29277500Y9110000D03*
X29277500Y8160000D03*
X29277500Y7210000D03*
D17*
X15440000Y2660000D03*
X17090000Y2660000D03*
D19*
X29190000Y4910000D03*
X27040000Y4910000D03*
D20*
X16015000Y12885000D03*
X14365000Y12885000D03*
D21*
X15965000Y9935000D03*
X14415000Y9935000D03*
D17*
X17365000Y11410000D03*
X19015000Y11410000D03*
D16*
X15490000Y4160000D03*
X17040000Y4160000D03*
D21*
X14015000Y6010000D03*
X12465000Y6010000D03*
D22*
X11270000Y16910000D03*
X10000000Y16910000D03*
X8730000Y16910000D03*
X7460000Y16910000D03*
X7460000Y24110000D03*
X8730000Y24110000D03*
X10000000Y24110000D03*
X11270000Y24110000D03*
D23*
X12315000Y10585000D03*
X12315000Y12735000D03*
D16*
X19715000Y6010000D03*
X21265000Y6010000D03*
X31115000Y7210000D03*
X32665000Y7210000D03*
D21*
X14015000Y7480000D03*
X12465000Y7480000D03*
D20*
X16015000Y11410000D03*
X14365000Y11410000D03*
D24*
X19140000Y3460000D03*
X19140000Y1310000D03*
D25*
X26890000Y10585000D03*
X26890000Y12235000D03*
D16*
X19715000Y7490000D03*
X21265000Y7490000D03*
D26*
X30290000Y1910000D03*
X26990000Y1910000D03*
D20*
X11815000Y15010000D03*
X10165000Y15010000D03*
D23*
X21065000Y10585000D03*
X21065000Y12735000D03*
D27*
X32640000Y8810000D03*
X32640000Y10360000D03*
D28*
X16065000Y8510000D03*
X16465000Y8510000D03*
X16865000Y8510000D03*
X17265000Y8510000D03*
X17665000Y8510000D03*
D29*
X18315000Y7860000D03*
X18315000Y7460000D03*
X18315000Y7060000D03*
X18315000Y6660000D03*
X18315000Y6260000D03*
D28*
X17665000Y5610000D03*
X17265000Y5610000D03*
X16865000Y5610000D03*
X16465000Y5610000D03*
X16065000Y5610000D03*
D29*
X15415000Y6260000D03*
X15415000Y6660000D03*
X15415000Y7060000D03*
X15415000Y7460000D03*
X15415000Y7860000D03*
D30*
X16865000Y7060000D03*
D31*
X10215000Y12435000D03*
X10215000Y10885000D03*
D21*
X11765000Y26010000D03*
X10215000Y26010000D03*
D25*
X29390000Y10585000D03*
X29390000Y12235000D03*
D27*
X21240000Y1610000D03*
X21240000Y3160000D03*
D32*
X34480000Y33930000D03*
X34480000Y38980000D03*
X31940000Y33930000D03*
X31940000Y38980000D03*
X29400000Y33930000D03*
X29400000Y38980000D03*
X26860000Y33930000D03*
X26860000Y38980000D03*
X24320000Y33930000D03*
X24320000Y38980000D03*
X21780000Y33930000D03*
X21780000Y38980000D03*
X19240000Y33930000D03*
X19240000Y38980000D03*
D17*
X17365000Y12885000D03*
X19015000Y12885000D03*
D27*
X31140000Y8810000D03*
X31140000Y10360000D03*
D31*
X23165000Y12435000D03*
X23165000Y10885000D03*
M02*
