M48
; DRILL file {KiCad (6.0.1)} date Wed Feb 16 11:59:11 2022
; FORMAT={-:-/ absolute / metric / decimal}
; #@! TF.CreationDate,2022-02-16T11:59:11+01:00
; #@! TF.GenerationSoftware,Kicad,Pcbnew,(6.0.1)
; #@! TF.FileFunction,MixedPlating,1,4
FMAT,2
METRIC
; #@! TA.AperFunction,Plated,PTH,ViaDrill
T1C0.300
; #@! TA.AperFunction,Plated,PTH,ComponentDrill
T2C0.400
; #@! TA.AperFunction,Plated,PTH,ComponentDrill
T3C0.600
; #@! TA.AperFunction,Plated,PTH,ComponentDrill
T4C2.200
; #@! TA.AperFunction,NonPlated,NPTH,ComponentDrill
T5C0.650
; #@! TA.AperFunction,NonPlated,NPTH,ComponentDrill
T6C0.700
%
G90
G05
T1
X1.165Y25.085
X1.165Y23.635
X1.165Y22.185
X1.165Y20.735
X1.165Y19.285
X1.165Y17.835
X1.34Y34.16
X3.25Y33.19
X3.865Y20.735
X4.19Y16.21
X4.24Y26.56
X4.96Y29.38
X5.07Y27.66
X5.08Y30.48
X5.8Y28.43
X6.14Y31.22
X6.31Y34.98
X6.84Y12.71
X6.84Y6.31
X7.07Y28.24
X7.465Y15.935
X7.73Y28.04
X8.49Y13.385
X8.74Y27.06
X9.89Y5.62
X9.89Y5.01
X10.165Y14.38
X10.215Y11.46
X10.315Y19.735
X10.42Y8.56
X10.49Y30.78
X10.89Y15.71
X11.64Y2.01
X11.93Y7.46
X11.93Y6.01
X12.015Y13.46
X12.02Y35.93
X12.03Y34.04
X12.115Y30.78
X12.18Y26.48
X12.615Y13.46
X12.915Y4.66
X13.49Y4.66
X13.64Y24.01
X13.65Y17.06
X13.84Y18.36
X13.865Y28.18
X14.19Y25.03
X14.19Y3.44
X14.32Y16.89
X14.415Y18.985
X15.29Y14.485
X15.48Y30.785
X15.72Y11.76
X16.4Y16.41
X16.458Y24.153
X16.49Y7.51
X16.49Y6.76
X16.515Y19.21
X16.52Y27.87
X16.63Y23.36
X16.98Y30.785
X17.24Y7.51
X17.24Y6.76
X17.28Y26.84
X17.43Y26.26
X17.44Y27.39
X17.49Y23.51
X17.49Y17.51
X17.74Y10.96
X18.01Y24.66
X18.31Y16.73
X18.415Y4.66
X18.47Y24.29
X18.48Y30.785
X18.48Y29.285
X18.99Y4.66
X19.04Y24.37
X19.09Y14.035
X19.79Y2.36
X19.865Y38.985
X19.98Y28.05
X20.29Y24.36
X20.49Y14.485
X20.765Y13.41
X21.34Y13.41
X21.69Y24.36
X21.84Y3.11
X21.89Y7.46
X21.89Y6.01
X22.215Y1.61
X22.39Y40.34
X22.39Y37.61
X22.72Y24.45
X22.765Y1.61
X22.98Y30.785
X23.165Y10.31
X23.41Y24.34
X23.49Y23.51
X23.49Y17.51
X24.19Y6.68
X24.665Y23.11
X24.69Y18.31
X25.11Y12.86
X25.196Y25.301
X25.64Y9.73
X25.734Y25.455
X25.835Y26.005
X25.94Y3.39
X26.19Y23.31
X26.34Y24.51
X26.89Y12.76
X27.79Y8.16
X27.865Y13.46
X27.96Y26.43
X28.07Y10.14
X28.11Y29.45
X28.39Y13.885
X28.4Y23.92
X28.46Y17.92
X28.69Y18.585
X29.165Y18.985
X29.19Y6.16
X29.39Y16.67
X29.39Y12.76
X29.64Y19.41
X29.89Y6.16
X30.0Y40.36
X30.0Y37.6
X30.06Y24.39
X30.07Y25.88
X30.14Y19.785
X30.61Y29.45
X30.64Y20.21
X31.02Y5.87
X31.14Y10.96
X31.24Y3.71
X32.04Y16.31
X32.365Y15.285
X32.64Y10.96
X32.74Y14.785
X32.79Y15.81
X33.09Y14.26
X33.24Y7.21
X33.84Y13.25
X33.84Y10.56
X35.01Y30.98
X35.09Y35.29
X35.09Y32.56
X35.215Y23.26
X35.24Y24.085
X35.315Y22.635
X35.34Y10.56
X35.39Y21.985
X35.51Y37.86
X35.51Y37.18
X35.615Y24.585
X35.88Y25.76
X36.23Y10.75
X37.565Y12.76
X38.17Y10.96
T2
X0.84Y38.51
X0.84Y2.51
X1.323Y39.677
X1.323Y37.343
X1.323Y3.677
X1.323Y1.343
X2.49Y40.16
X2.49Y36.86
X2.49Y4.16
X2.49Y0.86
X3.657Y39.677
X3.657Y37.343
X3.657Y3.677
X3.657Y1.343
X4.14Y38.51
X4.14Y2.51
X36.84Y38.51
X36.84Y2.51
X37.323Y39.677
X37.323Y37.343
X37.323Y3.677
X37.323Y1.343
X38.49Y40.16
X38.49Y36.86
X38.49Y4.16
X38.49Y0.86
X39.657Y39.677
X39.657Y37.343
X39.657Y3.677
X39.657Y1.343
X40.14Y38.51
X40.14Y2.51
T4
X2.49Y38.51
X2.49Y2.51
X38.49Y38.51
X38.49Y2.51
T5
X5.035Y12.4
X5.035Y6.62
T6
X2.47Y33.825
X2.47Y32.555
X2.47Y31.285
X2.47Y30.015
X2.47Y28.745
T3
X1.655Y13.83G85X1.055Y13.83
G05
X1.655Y5.19G85X1.055Y5.19
G05
X6.085Y13.83G85X4.985Y13.83
G05
X6.085Y5.19G85X4.985Y5.19
G05
T0
M30
