%TF.GenerationSoftware,KiCad,Pcbnew,(6.0.1)*%
%TF.CreationDate,2022-02-16T12:07:44+01:00*%
%TF.ProjectId,f1c200s,66316332-3030-4732-9e6b-696361645f70,rev?*%
%TF.SameCoordinates,PX754fbd0PY813b7f0*%
%TF.FileFunction,Copper,L4,Bot*%
%TF.FilePolarity,Positive*%
%FSLAX46Y46*%
G04 Gerber Fmt 4.6, Leading zero omitted, Abs format (unit mm)*
G04 Created by KiCad (PCBNEW (6.0.1)) date 2022-02-16 12:07:44*
%MOMM*%
%LPD*%
G01*
G04 APERTURE LIST*
G04 Aperture macros list*
%AMRoundRect*
0 Rectangle with rounded corners*
0 $1 Rounding radius*
0 $2 $3 $4 $5 $6 $7 $8 $9 X,Y pos of 4 corners*
0 Add a 4 corners polygon primitive as box body*
4,1,4,$2,$3,$4,$5,$6,$7,$8,$9,$2,$3,0*
0 Add four circle primitives for the rounded corners*
1,1,$1+$1,$2,$3*
1,1,$1+$1,$4,$5*
1,1,$1+$1,$6,$7*
1,1,$1+$1,$8,$9*
0 Add four rect primitives between the rounded corners*
20,1,$1+$1,$2,$3,$4,$5,0*
20,1,$1+$1,$4,$5,$6,$7,0*
20,1,$1+$1,$6,$7,$8,$9,0*
20,1,$1+$1,$8,$9,$2,$3,0*%
G04 Aperture macros list end*
%TA.AperFunction,ComponentPad*%
%ADD10C,0.700000*%
%TD*%
%TA.AperFunction,ComponentPad*%
%ADD11C,4.400000*%
%TD*%
%TA.AperFunction,SMDPad,CuDef*%
%ADD12O,1.500000X0.800000*%
%TD*%
%TA.AperFunction,ComponentPad*%
%ADD13O,1.600000X1.000000*%
%TD*%
%TA.AperFunction,ComponentPad*%
%ADD14O,2.100000X1.000000*%
%TD*%
%TA.AperFunction,SMDPad,CuDef*%
%ADD15RoundRect,0.225000X-0.225000X-0.250000X0.225000X-0.250000X0.225000X0.250000X-0.225000X0.250000X0*%
%TD*%
%TA.AperFunction,SMDPad,CuDef*%
%ADD16RoundRect,0.200000X-0.200000X-0.275000X0.200000X-0.275000X0.200000X0.275000X-0.200000X0.275000X0*%
%TD*%
%TA.AperFunction,SMDPad,CuDef*%
%ADD17RoundRect,0.150000X-0.512500X-0.150000X0.512500X-0.150000X0.512500X0.150000X-0.512500X0.150000X0*%
%TD*%
%TA.AperFunction,SMDPad,CuDef*%
%ADD18RoundRect,0.250000X0.375000X0.850000X-0.375000X0.850000X-0.375000X-0.850000X0.375000X-0.850000X0*%
%TD*%
%TA.AperFunction,SMDPad,CuDef*%
%ADD19RoundRect,0.200000X0.200000X0.275000X-0.200000X0.275000X-0.200000X-0.275000X0.200000X-0.275000X0*%
%TD*%
%TA.AperFunction,SMDPad,CuDef*%
%ADD20RoundRect,0.225000X0.225000X0.250000X-0.225000X0.250000X-0.225000X-0.250000X0.225000X-0.250000X0*%
%TD*%
%TA.AperFunction,SMDPad,CuDef*%
%ADD21RoundRect,0.150000X0.150000X-0.650000X0.150000X0.650000X-0.150000X0.650000X-0.150000X-0.650000X0*%
%TD*%
%TA.AperFunction,SMDPad,CuDef*%
%ADD22RoundRect,0.250000X0.850000X-0.375000X0.850000X0.375000X-0.850000X0.375000X-0.850000X-0.375000X0*%
%TD*%
%TA.AperFunction,SMDPad,CuDef*%
%ADD23RoundRect,0.250000X-0.850000X0.375000X-0.850000X-0.375000X0.850000X-0.375000X0.850000X0.375000X0*%
%TD*%
%TA.AperFunction,SMDPad,CuDef*%
%ADD24RoundRect,0.200000X0.275000X-0.200000X0.275000X0.200000X-0.275000X0.200000X-0.275000X-0.200000X0*%
%TD*%
%TA.AperFunction,SMDPad,CuDef*%
%ADD25R,0.900000X1.200000*%
%TD*%
%TA.AperFunction,SMDPad,CuDef*%
%ADD26RoundRect,0.225000X0.250000X-0.225000X0.250000X0.225000X-0.250000X0.225000X-0.250000X-0.225000X0*%
%TD*%
%TA.AperFunction,SMDPad,CuDef*%
%ADD27RoundRect,0.050000X-0.050000X0.375000X-0.050000X-0.375000X0.050000X-0.375000X0.050000X0.375000X0*%
%TD*%
%TA.AperFunction,SMDPad,CuDef*%
%ADD28RoundRect,0.050000X-0.375000X0.050000X-0.375000X-0.050000X0.375000X-0.050000X0.375000X0.050000X0*%
%TD*%
%TA.AperFunction,SMDPad,CuDef*%
%ADD29R,1.650000X1.650000*%
%TD*%
%TA.AperFunction,SMDPad,CuDef*%
%ADD30RoundRect,0.225000X-0.250000X0.225000X-0.250000X-0.225000X0.250000X-0.225000X0.250000X0.225000X0*%
%TD*%
%TA.AperFunction,SMDPad,CuDef*%
%ADD31R,1.000000X3.150000*%
%TD*%
%TA.AperFunction,ViaPad*%
%ADD32C,0.400000*%
%TD*%
%TA.AperFunction,Conductor*%
%ADD33C,0.250000*%
%TD*%
%TA.AperFunction,Conductor*%
%ADD34C,0.800000*%
%TD*%
%TA.AperFunction,Conductor*%
%ADD35C,0.200000*%
%TD*%
%TA.AperFunction,Conductor*%
%ADD36C,0.400000*%
%TD*%
G04 APERTURE END LIST*
D10*
X840000Y38510000D03*
X3656726Y39676726D03*
D11*
X2490000Y38510000D03*
D10*
X3656726Y37343274D03*
X4140000Y38510000D03*
X2490000Y36860000D03*
X1323274Y37343274D03*
X2490000Y40160000D03*
X1323274Y39676726D03*
D12*
X1315000Y33190000D03*
X1315000Y31920000D03*
X1315000Y30650000D03*
X1315000Y29380000D03*
D10*
X40140000Y2510000D03*
X39656726Y3676726D03*
X37323274Y1343274D03*
X38490000Y4160000D03*
X37323274Y3676726D03*
D11*
X38490000Y2510000D03*
D10*
X36840000Y2510000D03*
X38490000Y860000D03*
X39656726Y1343274D03*
D11*
X2490000Y2510000D03*
D10*
X4140000Y2510000D03*
X2490000Y860000D03*
X840000Y2510000D03*
X3656726Y1343274D03*
X1323274Y3676726D03*
X1323274Y1343274D03*
X3656726Y3676726D03*
X2490000Y4160000D03*
X36840000Y38510000D03*
D11*
X38490000Y38510000D03*
D10*
X38490000Y40160000D03*
X39656726Y39676726D03*
X37323274Y39676726D03*
X38490000Y36860000D03*
X37323274Y37343274D03*
X39656726Y37343274D03*
X40140000Y38510000D03*
D13*
X1355000Y5190000D03*
D14*
X5535000Y5190000D03*
D13*
X1355000Y13830000D03*
D14*
X5535000Y13830000D03*
D15*
X17415000Y9935000D03*
X18965000Y9935000D03*
D16*
X15440000Y1160000D03*
X17090000Y1160000D03*
D17*
X27002500Y7210000D03*
X27002500Y8160000D03*
X27002500Y9110000D03*
X29277500Y9110000D03*
X29277500Y8160000D03*
X29277500Y7210000D03*
D16*
X15440000Y2660000D03*
X17090000Y2660000D03*
D18*
X29190000Y4910000D03*
X27040000Y4910000D03*
D19*
X16015000Y12885000D03*
X14365000Y12885000D03*
D20*
X15965000Y9935000D03*
X14415000Y9935000D03*
D16*
X17365000Y11410000D03*
X19015000Y11410000D03*
D15*
X15490000Y4160000D03*
X17040000Y4160000D03*
D20*
X14015000Y6010000D03*
X12465000Y6010000D03*
D21*
X11270000Y16910000D03*
X10000000Y16910000D03*
X8730000Y16910000D03*
X7460000Y16910000D03*
X7460000Y24110000D03*
X8730000Y24110000D03*
X10000000Y24110000D03*
X11270000Y24110000D03*
D22*
X12315000Y10585000D03*
X12315000Y12735000D03*
D15*
X19715000Y6010000D03*
X21265000Y6010000D03*
X31115000Y7210000D03*
X32665000Y7210000D03*
D20*
X14015000Y7480000D03*
X12465000Y7480000D03*
D19*
X16015000Y11410000D03*
X14365000Y11410000D03*
D23*
X19140000Y3460000D03*
X19140000Y1310000D03*
D24*
X26890000Y10585000D03*
X26890000Y12235000D03*
D15*
X19715000Y7490000D03*
X21265000Y7490000D03*
D25*
X30290000Y1910000D03*
X26990000Y1910000D03*
D19*
X11815000Y15010000D03*
X10165000Y15010000D03*
D22*
X21065000Y10585000D03*
X21065000Y12735000D03*
D26*
X32640000Y8810000D03*
X32640000Y10360000D03*
D27*
X16065000Y8510000D03*
X16465000Y8510000D03*
X16865000Y8510000D03*
X17265000Y8510000D03*
X17665000Y8510000D03*
D28*
X18315000Y7860000D03*
X18315000Y7460000D03*
X18315000Y7060000D03*
X18315000Y6660000D03*
X18315000Y6260000D03*
D27*
X17665000Y5610000D03*
X17265000Y5610000D03*
X16865000Y5610000D03*
X16465000Y5610000D03*
X16065000Y5610000D03*
D28*
X15415000Y6260000D03*
X15415000Y6660000D03*
X15415000Y7060000D03*
X15415000Y7460000D03*
X15415000Y7860000D03*
D29*
X16865000Y7060000D03*
D30*
X10215000Y12435000D03*
X10215000Y10885000D03*
D20*
X11765000Y26010000D03*
X10215000Y26010000D03*
D24*
X29390000Y10585000D03*
X29390000Y12235000D03*
D26*
X21240000Y1610000D03*
X21240000Y3160000D03*
D31*
X34480000Y33930000D03*
X34480000Y38980000D03*
X31940000Y33930000D03*
X31940000Y38980000D03*
X29400000Y33930000D03*
X29400000Y38980000D03*
X26860000Y33930000D03*
X26860000Y38980000D03*
X24320000Y33930000D03*
X24320000Y38980000D03*
X21780000Y33930000D03*
X21780000Y38980000D03*
X19240000Y33930000D03*
X19240000Y38980000D03*
D16*
X17365000Y12885000D03*
X19015000Y12885000D03*
D26*
X31140000Y8810000D03*
X31140000Y10360000D03*
D30*
X23165000Y12435000D03*
X23165000Y10885000D03*
D32*
X13640000Y24010000D03*
X12180000Y26480000D03*
X1165000Y25085000D03*
X22215000Y1610000D03*
X35880000Y25760000D03*
X31020000Y5870000D03*
X28460000Y17920000D03*
X1165000Y22185000D03*
X15290000Y14485000D03*
X1165000Y23635000D03*
X20490000Y14485000D03*
X6310000Y34980000D03*
X10165000Y14380000D03*
X28400000Y23920000D03*
X35010000Y30980000D03*
X11640000Y2010000D03*
X1165000Y17835000D03*
X22765000Y1610000D03*
X3865000Y20735000D03*
X35090000Y35290000D03*
X35090000Y32560000D03*
X1165000Y19285000D03*
X33840000Y13250000D03*
X18480000Y29285000D03*
X12015000Y13460000D03*
X12615000Y13460000D03*
X19090000Y14035000D03*
X27960000Y26430000D03*
X20290000Y24360000D03*
X21690000Y24360000D03*
X20765000Y13410000D03*
X21340000Y13410000D03*
X29890000Y6160000D03*
X12915000Y4660000D03*
X13490000Y4660000D03*
X29190000Y6160000D03*
X9890000Y5620000D03*
X18415000Y4660000D03*
X18990000Y4660000D03*
X35510000Y37860000D03*
X35510000Y37180000D03*
X9890000Y5010000D03*
X3250000Y33190000D03*
X18310000Y16730000D03*
X10890000Y15710000D03*
X5070000Y27660000D03*
X5800000Y28430000D03*
X13840000Y18360000D03*
X16515000Y19210000D03*
X7730000Y28040000D03*
X6140000Y31220000D03*
X5080000Y30480000D03*
X14415000Y18985000D03*
X7070000Y28240000D03*
X25940000Y3390000D03*
X16400000Y16410000D03*
X25640000Y9730000D03*
X19040000Y24370000D03*
X24690000Y18310000D03*
X28110000Y29450000D03*
X30610000Y29450000D03*
X27865000Y13460000D03*
X28390000Y13885000D03*
X24665000Y23110000D03*
X25110000Y12860000D03*
X18470000Y24289502D03*
X28070000Y10140000D03*
X16458363Y24153382D03*
X4960000Y29380000D03*
X16630000Y23360000D03*
X18010000Y24660000D03*
X17430000Y26260000D03*
X17280000Y26840000D03*
X17440000Y27390000D03*
X23410000Y24340000D03*
X13650000Y17060000D03*
X38170000Y10960000D03*
X36230000Y10750000D03*
X33090000Y14260000D03*
X26190000Y23310000D03*
X26340000Y24510000D03*
X32740000Y14785000D03*
X32365000Y15285000D03*
X25196242Y25300953D03*
X25734200Y25454721D03*
X32790000Y15810000D03*
X32040000Y16310000D03*
X25834916Y26005084D03*
X14320000Y16890000D03*
X22720000Y24450000D03*
X35390000Y21985000D03*
X28690000Y18585000D03*
X35315000Y22635000D03*
X29165000Y18985000D03*
X29640000Y19410000D03*
X35215000Y23260000D03*
X30140000Y19785000D03*
X35240000Y24085000D03*
X35615000Y24585000D03*
X30640000Y20210000D03*
X21890000Y6010000D03*
X14190000Y25030000D03*
X11930000Y7460000D03*
X18480000Y30785000D03*
X16490000Y7510000D03*
X23165000Y10310000D03*
X15720000Y11760000D03*
X30000000Y40360000D03*
X1340000Y34160000D03*
X11930000Y6010000D03*
X19790000Y2360000D03*
X30070000Y25880000D03*
X30000000Y37600000D03*
X17490000Y23510000D03*
X16490000Y6760000D03*
X6840000Y6310000D03*
X12115000Y30780000D03*
X31140000Y10960000D03*
X12030000Y34040000D03*
X35340000Y10560000D03*
X10420000Y8560000D03*
X17240000Y6760000D03*
X21890000Y7460000D03*
X31240000Y3710000D03*
X1165000Y20735000D03*
X14190000Y3440000D03*
X8490000Y13385000D03*
X22980000Y30785000D03*
X17240000Y7510000D03*
X17490000Y17510000D03*
X10215000Y11460000D03*
X33240000Y7210000D03*
X21840000Y3110000D03*
X32640000Y10960000D03*
X13865000Y28180000D03*
X29390000Y16670000D03*
X23490000Y23510000D03*
X8740000Y27060000D03*
X7465000Y15935000D03*
X30060000Y24390000D03*
X29390000Y12760000D03*
X4190000Y16210000D03*
X4240000Y26560000D03*
X33840000Y10560000D03*
X10490000Y30780000D03*
X6840000Y12710000D03*
X27790000Y8160000D03*
X16980000Y30785000D03*
X19980000Y28050000D03*
X19865000Y38985000D03*
X24190000Y6680000D03*
X23490000Y17510000D03*
X15480000Y30785000D03*
X26890000Y12760000D03*
X22390000Y37610000D03*
X37565000Y12760000D03*
X17740000Y10960000D03*
X22390000Y40340000D03*
X10315000Y19735000D03*
X12020000Y35930000D03*
X16520000Y27870000D03*
D33*
X11765000Y25515000D02*
X11270000Y25020000D01*
D34*
X21240000Y1610000D02*
X22215000Y1610000D01*
X19140000Y1310000D02*
X20940000Y1310000D01*
D33*
X11270000Y24110000D02*
X10000000Y24110000D01*
D35*
X10165000Y15010000D02*
X9215000Y15010000D01*
X8730000Y15495000D02*
X8730000Y16910000D01*
D33*
X11765000Y26010000D02*
X11765000Y25515000D01*
D34*
X20940000Y1310000D02*
X21240000Y1610000D01*
D35*
X17090000Y1160000D02*
X18990000Y1160000D01*
X18990000Y1160000D02*
X19140000Y1310000D01*
D33*
X11270000Y25020000D02*
X11270000Y24110000D01*
D35*
X9215000Y15010000D02*
X8730000Y15495000D01*
D34*
X22215000Y1610000D02*
X22765000Y1610000D01*
D36*
X12315000Y12735000D02*
X11915000Y12735000D01*
X10515000Y12735000D02*
X10215000Y12435000D01*
D35*
X12315000Y12735000D02*
X12765000Y12735000D01*
D34*
X12015000Y13035000D02*
X12315000Y12735000D01*
D35*
X12765000Y12735000D02*
X14215000Y12735000D01*
X14215000Y12735000D02*
X14365000Y12885000D01*
D34*
X12015000Y13460000D02*
X12015000Y13035000D01*
D36*
X11915000Y12735000D02*
X10515000Y12735000D01*
X22865000Y12735000D02*
X23165000Y12435000D01*
X21065000Y12735000D02*
X22865000Y12735000D01*
D35*
X21065000Y12735000D02*
X19165000Y12735000D01*
D34*
X20765000Y13410000D02*
X21340000Y13410000D01*
D35*
X19165000Y12735000D02*
X19015000Y12885000D01*
X14540000Y11410000D02*
X16015000Y12885000D01*
X14490000Y11410000D02*
X14365000Y11410000D01*
X14365000Y11410000D02*
X14540000Y11410000D01*
X15965000Y9935000D02*
X16465000Y9435000D01*
X15965000Y9935000D02*
X14490000Y11410000D01*
X16465000Y9435000D02*
X16465000Y8510000D01*
D36*
X31115000Y7210000D02*
X29277500Y7210000D01*
D34*
X29890000Y6160000D02*
X29190000Y6160000D01*
D35*
X18315000Y6660000D02*
X18315000Y6260000D01*
D36*
X29190000Y4910000D02*
X29190000Y7122500D01*
D33*
X15415000Y6260000D02*
X14265000Y6260000D01*
D34*
X35510000Y37860000D02*
X35510000Y38680000D01*
D35*
X15415000Y7060000D02*
X15415000Y7460000D01*
D34*
X35510000Y37860000D02*
X35510000Y37180000D01*
D36*
X29190000Y7122500D02*
X29277500Y7210000D01*
D34*
X35510000Y38680000D02*
X35210000Y38980000D01*
D35*
X18315000Y7460000D02*
X18315000Y7060000D01*
D34*
X30065000Y6160000D02*
X31115000Y7210000D01*
D33*
X14265000Y6260000D02*
X14015000Y6010000D01*
D35*
X18315000Y7060000D02*
X18315000Y6660000D01*
D34*
X35210000Y38980000D02*
X34480000Y38980000D01*
D33*
X19465000Y6260000D02*
X19715000Y6010000D01*
D34*
X19715000Y6010000D02*
X19715000Y5385000D01*
X13490000Y4660000D02*
X14015000Y5185000D01*
X29890000Y6160000D02*
X30065000Y6160000D01*
D33*
X18315000Y7460000D02*
X19715000Y7460000D01*
D34*
X19715000Y5385000D02*
X18990000Y4660000D01*
D33*
X18315000Y6260000D02*
X19465000Y6260000D01*
D34*
X14015000Y5185000D02*
X14015000Y6010000D01*
X34480000Y38980000D02*
X31940000Y38980000D01*
X18990000Y4660000D02*
X18415000Y4660000D01*
X12915000Y4660000D02*
X13490000Y4660000D01*
D33*
X15415000Y7460000D02*
X14015000Y7460000D01*
D34*
X14015000Y6010000D02*
X14015000Y7460000D01*
D35*
X17980000Y23950000D02*
X17319511Y24610489D01*
X5470000Y33190000D02*
X3250000Y33190000D01*
X13690000Y29980000D02*
X8680000Y29980000D01*
X14960000Y27650000D02*
X14960000Y28710000D01*
X18310000Y16730000D02*
X18300000Y16740000D01*
X14960000Y28710000D02*
X13690000Y29980000D01*
X17319511Y25290489D02*
X14960000Y27650000D01*
X17980000Y19010000D02*
X17980000Y23950000D01*
X17319511Y24610489D02*
X17319511Y25290489D01*
X18300000Y16740000D02*
X18300000Y18690000D01*
X8680000Y29980000D02*
X5470000Y33190000D01*
X18300000Y18690000D02*
X17980000Y19010000D01*
X4990000Y27580000D02*
X5070000Y27660000D01*
X4990000Y22029148D02*
X4990000Y27020000D01*
X10000000Y16910000D02*
X10000000Y16600000D01*
X10000000Y17019148D02*
X4990000Y22029148D01*
X10000000Y16910000D02*
X10000000Y17019148D01*
X4990000Y27020000D02*
X4990000Y27580000D01*
X10000000Y16600000D02*
X10890000Y15710000D01*
X11915000Y18485000D02*
X13715000Y18485000D01*
X11270000Y16910000D02*
X11815000Y16365000D01*
X11260000Y17840000D02*
X5800000Y23300000D01*
X11270000Y17840000D02*
X11260000Y17840000D01*
X11815000Y16365000D02*
X11815000Y15010000D01*
X5800000Y23300000D02*
X5800000Y28430000D01*
X11270000Y16910000D02*
X11270000Y17840000D01*
X13715000Y18485000D02*
X13840000Y18360000D01*
X11270000Y17840000D02*
X11915000Y18485000D01*
X9049628Y25169520D02*
X9440480Y24778668D01*
X7460000Y27770000D02*
X7730000Y28040000D01*
X1315000Y31920000D02*
X3320000Y31920000D01*
X7460000Y24110000D02*
X7460000Y27770000D01*
X3320000Y31920000D02*
X4040000Y31200000D01*
X16165000Y19560000D02*
X16515000Y19210000D01*
X10565000Y20935000D02*
X11940000Y19560000D01*
X9440480Y24778668D02*
X9440480Y22059520D01*
X6120000Y31200000D02*
X6140000Y31220000D01*
X8410372Y25169520D02*
X9049628Y25169520D01*
X7460000Y24110000D02*
X7460000Y24219148D01*
X7460000Y24219148D02*
X8410372Y25169520D01*
X9440480Y22059520D02*
X10565000Y20935000D01*
X11940000Y19560000D02*
X14265000Y19560000D01*
X14265000Y19560000D02*
X16165000Y19560000D01*
X4040000Y31200000D02*
X6120000Y31200000D01*
X8730000Y24110000D02*
X8730000Y22070000D01*
X6610000Y26030000D02*
X6970000Y26390000D01*
X8730000Y22070000D02*
X11615000Y19185000D01*
X11815000Y18985000D02*
X14415000Y18985000D01*
X7720000Y22070000D02*
X6610000Y23180000D01*
X5080000Y30480000D02*
X4910000Y30650000D01*
X4910000Y30650000D02*
X1315000Y30650000D01*
X6970000Y26390000D02*
X7070000Y26490000D01*
X11615000Y19185000D02*
X11815000Y18985000D01*
X8730000Y22070000D02*
X7720000Y22070000D01*
X6610000Y23180000D02*
X6610000Y26030000D01*
X7070000Y26490000D02*
X7070000Y28240000D01*
D36*
X12315000Y10585000D02*
X13765000Y10585000D01*
D35*
X15015000Y7860000D02*
X14915000Y7960000D01*
D36*
X13765000Y10585000D02*
X14415000Y9935000D01*
X14415000Y8460000D02*
X14915000Y7960000D01*
X14415000Y9935000D02*
X14415000Y8460000D01*
D35*
X15415000Y7860000D02*
X15015000Y7860000D01*
X15590000Y1160000D02*
X15440000Y1160000D01*
X16465000Y5610000D02*
X16465000Y5135000D01*
X15490000Y4160000D02*
X15590000Y4160000D01*
X15590000Y4160000D02*
X17090000Y2660000D01*
X17090000Y2660000D02*
X15590000Y1160000D01*
X16465000Y5135000D02*
X15490000Y4160000D01*
D33*
X17665000Y5610000D02*
X17665000Y4985000D01*
D36*
X17040000Y4160000D02*
X17665000Y4785000D01*
X17740000Y3460000D02*
X17040000Y4160000D01*
X17665000Y4785000D02*
X17665000Y4985000D01*
X19140000Y3460000D02*
X17740000Y3460000D01*
D35*
X18890000Y11410000D02*
X19015000Y11410000D01*
X16865000Y9385000D02*
X17415000Y9935000D01*
X17415000Y9935000D02*
X18890000Y11410000D01*
X16865000Y8510000D02*
X16865000Y9385000D01*
X19015000Y11410000D02*
X18840000Y11410000D01*
X18840000Y11410000D02*
X17365000Y12885000D01*
X18315000Y7860000D02*
X18690000Y7860000D01*
X18690000Y7860000D02*
X18740000Y7910000D01*
D36*
X19615000Y10585000D02*
X18965000Y9935000D01*
X18965000Y8135000D02*
X18774520Y7944520D01*
X18965000Y9935000D02*
X18965000Y8135000D01*
X21065000Y10585000D02*
X19615000Y10585000D01*
D35*
X16539501Y16270499D02*
X16400000Y16410000D01*
X24300000Y9710000D02*
X24300000Y13161574D01*
X23730000Y9140000D02*
X24300000Y9710000D01*
X25940000Y3390000D02*
X24940000Y3390000D01*
X24300000Y13161574D02*
X21191075Y16270499D01*
X21191075Y16270499D02*
X16539501Y16270499D01*
X24940000Y3390000D02*
X23730000Y4600000D01*
X23730000Y4600000D02*
X23730000Y9140000D01*
X19040000Y19708426D02*
X19040000Y24370000D01*
X25640000Y13108426D02*
X19040000Y19708426D01*
X25640000Y9730000D02*
X25640000Y13108426D01*
X31940000Y30780000D02*
X31940000Y33930000D01*
X27900000Y29450000D02*
X28110000Y29450000D01*
X30610000Y29450000D02*
X31940000Y30780000D01*
X24160000Y25710000D02*
X27860000Y29410000D01*
X24690000Y18310000D02*
X24690000Y16635000D01*
X24210000Y18930000D02*
X24160000Y18980000D01*
X24690000Y18450000D02*
X24210000Y18930000D01*
X24160000Y18980000D02*
X24160000Y25650000D01*
X24160000Y25650000D02*
X24160000Y25710000D01*
X24690000Y16635000D02*
X27865000Y13460000D01*
X27860000Y29410000D02*
X27900000Y29450000D01*
X24690000Y18310000D02*
X24690000Y18450000D01*
X24665000Y25485000D02*
X24665000Y23110000D01*
X25230489Y18819511D02*
X24665000Y19385000D01*
X26880000Y27700000D02*
X24665000Y25485000D01*
X27960000Y27700000D02*
X26880000Y27700000D01*
X28390000Y13885000D02*
X25230489Y17044511D01*
X25230489Y17044511D02*
X25230489Y18819511D01*
X29400000Y29140000D02*
X27960000Y27700000D01*
X29400000Y33930000D02*
X29400000Y29140000D01*
X24665000Y19385000D02*
X24665000Y23110000D01*
D36*
X29390000Y9222500D02*
X29277500Y9110000D01*
D35*
X29385000Y10590000D02*
X29390000Y10585000D01*
X18470000Y19500000D02*
X25110000Y12860000D01*
X28070000Y10140000D02*
X28520000Y10590000D01*
X28520000Y10590000D02*
X29385000Y10590000D01*
D36*
X29390000Y10585000D02*
X29390000Y9222500D01*
D35*
X18470000Y24289502D02*
X18470000Y19500000D01*
X7490000Y29380000D02*
X4960000Y29380000D01*
X16458363Y24451637D02*
X13880000Y27030000D01*
X9840000Y27030000D02*
X7490000Y29380000D01*
X13880000Y27030000D02*
X9840000Y27030000D01*
X16458363Y24153382D02*
X16458363Y24451637D01*
X16960000Y23690000D02*
X16960000Y24570000D01*
X14020000Y27510000D02*
X10010000Y27510000D01*
X16960000Y24570000D02*
X14020000Y27510000D01*
X7650000Y29870000D02*
X4570000Y29870000D01*
X4570000Y29870000D02*
X4080000Y29380000D01*
X10010000Y27510000D02*
X7650000Y29870000D01*
X4080000Y29380000D02*
X1315000Y29380000D01*
X16630000Y23360000D02*
X16960000Y23690000D01*
X21680000Y25770000D02*
X19120000Y25770000D01*
X19120000Y25770000D02*
X18010000Y24660000D01*
X26860000Y33930000D02*
X26860000Y30950000D01*
X26860000Y30950000D02*
X21680000Y25770000D01*
X19650000Y26260000D02*
X24320000Y30930000D01*
X24320000Y30930000D02*
X24320000Y33930000D01*
X17430000Y26260000D02*
X19650000Y26260000D01*
X17330000Y26890000D02*
X17840000Y26890000D01*
X19260000Y30700000D02*
X19820000Y31260000D01*
X21780000Y32070000D02*
X21780000Y33930000D01*
X17280000Y26840000D02*
X17330000Y26890000D01*
X19260000Y28310000D02*
X19260000Y30700000D01*
X17840000Y26890000D02*
X19260000Y28310000D01*
X20970000Y31260000D02*
X21780000Y32070000D01*
X19820000Y31260000D02*
X20970000Y31260000D01*
X18760000Y31590000D02*
X18230000Y31590000D01*
X17710000Y31070000D02*
X17710000Y30330000D01*
X19240000Y33930000D02*
X19240000Y32070000D01*
X17710000Y30330000D02*
X17440000Y30060000D01*
X17440000Y30060000D02*
X17440000Y27390000D01*
X19240000Y32070000D02*
X18760000Y31590000D01*
X18230000Y31590000D02*
X17710000Y31070000D01*
X23410000Y25560000D02*
X28260000Y30410000D01*
X28260000Y36010000D02*
X26860000Y37410000D01*
X28260000Y30410000D02*
X28260000Y36010000D01*
X26860000Y37410000D02*
X26860000Y38980000D01*
X23410000Y24340000D02*
X23410000Y25560000D01*
D36*
X33890000Y8720000D02*
X33800000Y8810000D01*
X33890000Y4580000D02*
X33890000Y8720000D01*
X31140000Y8810000D02*
X32640000Y8810000D01*
X33800000Y8810000D02*
X37140000Y8810000D01*
X30290000Y1910000D02*
X31220000Y1910000D01*
X29277500Y8160000D02*
X30490000Y8160000D01*
X38170000Y9840000D02*
X38170000Y10960000D01*
X37140000Y8810000D02*
X38170000Y9840000D01*
X30490000Y8160000D02*
X31140000Y8810000D01*
X31220000Y1910000D02*
X33890000Y4580000D01*
X32640000Y8810000D02*
X33800000Y8810000D01*
X30400000Y11470000D02*
X30550000Y11620000D01*
X30274520Y11344520D02*
X30400000Y11470000D01*
X26890000Y10585000D02*
X27649520Y11344520D01*
X27002500Y9110000D02*
X27002500Y10472500D01*
X27649520Y11344520D02*
X30274520Y11344520D01*
X35360000Y11620000D02*
X36230000Y10750000D01*
X27002500Y10472500D02*
X26890000Y10585000D01*
X30550000Y11620000D02*
X34360000Y11620000D01*
X34360000Y11620000D02*
X35360000Y11620000D01*
D35*
X25590000Y22710000D02*
X26190000Y23310000D01*
X28815000Y14260000D02*
X25990000Y17085000D01*
X33090000Y14260000D02*
X28815000Y14260000D01*
X25590000Y17485000D02*
X25590000Y20685000D01*
X25590000Y20685000D02*
X25590000Y22710000D01*
X25990000Y17085000D02*
X25590000Y17485000D01*
X32615000Y14660000D02*
X32740000Y14785000D01*
X26015000Y22385000D02*
X26015000Y17610000D01*
X26340000Y24510000D02*
X26715000Y24135000D01*
X26715000Y23510000D02*
X26715000Y23085000D01*
X26015000Y17610000D02*
X28965000Y14660000D01*
X28965000Y14660000D02*
X32615000Y14660000D01*
X26715000Y24135000D02*
X26715000Y23510000D01*
X26715000Y23085000D02*
X26015000Y22385000D01*
X27090000Y22910000D02*
X27090000Y24560000D01*
X26390000Y17760000D02*
X26390000Y22210000D01*
X27090000Y24560000D02*
X26654780Y24995220D01*
X29115000Y15035000D02*
X26390000Y17760000D01*
X26654780Y24995220D02*
X25501975Y24995220D01*
X26390000Y22210000D02*
X27090000Y22910000D01*
X32115000Y15035000D02*
X29115000Y15035000D01*
X32365000Y15285000D02*
X32115000Y15035000D01*
X25501975Y24995220D02*
X25196242Y25300953D01*
X27020279Y25454721D02*
X25734200Y25454721D01*
X32790000Y15810000D02*
X32140000Y15810000D01*
X26765000Y22010000D02*
X27490000Y22735000D01*
X32140000Y15810000D02*
X31765000Y15435000D01*
X31765000Y15435000D02*
X29265000Y15435000D01*
X26765000Y17935000D02*
X26765000Y22010000D01*
X27490000Y22735000D02*
X27490000Y24985000D01*
X29265000Y15435000D02*
X26765000Y17935000D01*
X27490000Y24985000D02*
X27020279Y25454721D01*
X29420000Y15940000D02*
X27180000Y18180000D01*
X31670000Y15940000D02*
X29420000Y15940000D01*
X27180000Y21710000D02*
X27920000Y22450000D01*
X27124916Y26005084D02*
X25834916Y26005084D01*
X27920000Y22450000D02*
X27920000Y25210000D01*
X27180000Y18180000D02*
X27180000Y21710000D01*
X27920000Y25210000D02*
X27124916Y26005084D01*
X32040000Y16310000D02*
X31670000Y15940000D01*
X27820000Y30830000D02*
X27820000Y35564022D01*
X24320000Y37030000D02*
X24320000Y38980000D01*
X27820000Y35564022D02*
X27204022Y36180000D01*
X25170000Y36180000D02*
X24320000Y37030000D01*
X22720000Y24450000D02*
X22720000Y25730000D01*
X27204022Y36180000D02*
X25170000Y36180000D01*
X22720000Y25730000D02*
X27820000Y30830000D01*
X31640000Y18385000D02*
X31790000Y18385000D01*
X28890000Y18385000D02*
X31640000Y18385000D01*
X31790000Y18385000D02*
X35390000Y21985000D01*
X28690000Y18585000D02*
X28890000Y18385000D01*
X31390000Y18785000D02*
X31465000Y18785000D01*
X29165000Y18985000D02*
X29365000Y18785000D01*
X31465000Y18785000D02*
X35315000Y22635000D01*
X29365000Y18785000D02*
X31390000Y18785000D01*
X29790000Y19260000D02*
X31040000Y19260000D01*
X31040000Y19260000D02*
X31215000Y19260000D01*
X29640000Y19410000D02*
X29790000Y19260000D01*
X31215000Y19260000D02*
X35215000Y23260000D01*
X30890000Y19685000D02*
X30915000Y19710000D01*
X30915000Y19710000D02*
X35015000Y23810000D01*
X30665000Y19685000D02*
X30890000Y19685000D01*
X35240000Y24035000D02*
X35240000Y24085000D01*
X30240000Y19685000D02*
X30665000Y19685000D01*
X35015000Y23810000D02*
X35240000Y24035000D01*
X30140000Y19785000D02*
X30240000Y19685000D01*
X35015000Y24585000D02*
X30640000Y20210000D01*
X35615000Y24585000D02*
X35015000Y24585000D01*
X16390000Y6660000D02*
X16490000Y6760000D01*
X16099520Y8475480D02*
X16099520Y7825480D01*
X17265000Y5610000D02*
X16865000Y5610000D01*
D33*
X9165000Y27060000D02*
X10215000Y26010000D01*
D36*
X17365000Y11410000D02*
X16015000Y11410000D01*
D35*
X14660000Y3440000D02*
X15440000Y2660000D01*
X14190000Y3440000D02*
X14660000Y3440000D01*
D36*
X1315000Y33190000D02*
X1315000Y34135000D01*
D35*
X16065000Y8510000D02*
X16099520Y8475480D01*
X16065000Y5610000D02*
X16099520Y5644520D01*
X16099520Y6294520D02*
X16865000Y7060000D01*
X17265000Y7460000D02*
X16865000Y7060000D01*
X17265000Y8510000D02*
X17265000Y7460000D01*
X16865000Y5610000D02*
X16865000Y7060000D01*
D36*
X1315000Y34135000D02*
X1340000Y34160000D01*
D35*
X17665000Y8510000D02*
X17265000Y8510000D01*
X15415000Y6660000D02*
X16390000Y6660000D01*
D33*
X8740000Y27060000D02*
X9165000Y27060000D01*
D35*
X16099520Y5644520D02*
X16099520Y6294520D01*
X16099520Y7825480D02*
X16865000Y7060000D01*
D36*
X27040000Y1960000D02*
X26990000Y1910000D01*
X27040000Y7172500D02*
X27002500Y7210000D01*
X27040000Y4910000D02*
X27040000Y1960000D01*
X27040000Y4910000D02*
X27040000Y7172500D01*
D35*
X12020000Y35930000D02*
X16290000Y31660000D01*
X16290000Y28100000D02*
X16520000Y27870000D01*
X16290000Y31660000D02*
X16290000Y28100000D01*
M02*
